<svg preserveAspectRatio="none" width="100%" height="100%" overflow="visible" style="display: block;" viewBox="0 0 569.473 25.226" fill="none" xmlns="http://www.w3.org/2000/svg">
<path id="Vector 1" d="M41.8548 8.28308C42.1958 8.27529 43.5618 8.37266 44.1504 8.43792C43.4766 8.42601 40.6292 8.28392 41.8548 8.28308ZM102.979 6.35962C102.47 6.67925 101.963 7.01449 101.472 7.3579C102.912 6.43579 104.936 5.33461 106.401 4.72013C106.639 4.61832 106.052 4.95241 106.613 4.70688C107.177 4.46715 107.03 4.42424 107.857 4.08237C108.764 3.63539 113.184 2.37238 114.763 2.16701C120.598 1.0902 126.761 1.41789 132.432 3.25273C126.487 1.71351 132.475 3.27805 134.068 3.92605C134.387 4.13283 134.572 3.57538 139.975 6.57277C142.672 8.26949 141.079 7.42778 143.299 8.99965C143.718 9.31008 144.302 9.72364 145.163 10.2482C141.863 7.72945 145.091 10.2545 148.004 11.6709C148.47 11.9843 152.64 13.7256 154.613 14.0752C155.278 14.2301 156.311 14.3437 157.202 14.4666C157.816 14.5508 158.276 14.66 159.195 14.7307C163.481 15.0448 167.758 14.4591 171.807 13.0067C169.506 14.064 173.708 12.4297 173.867 12.2899C174.852 11.9708 170.529 13.7155 172.261 13.0817C174.672 12.1618 176.964 10.9308 179.065 9.43132C178.176 10.0276 178.759 9.58749 179.623 8.90213C180.64 8.08631 182.08 7.13569 182.568 6.89127C182.306 6.94163 185.364 5.0318 189.071 3.77884C192.757 2.45193 196.987 1.95994 198.092 1.84612C198.559 1.86939 195.493 1.7041 202.574 1.61846C203.34 1.64699 203.047 1.70008 203.449 1.71199C203.686 1.71925 205.163 1.60023 206.692 1.92547C207.228 2.14085 203.705 1.34078 211.467 3.03383C209.962 2.55884 212.64 3.07828 215.83 4.41863C219.044 5.7087 222.546 8.06581 223.613 8.94071C223.628 8.95173 223.641 8.96241 223.654 8.97272C223.641 8.96152 223.628 8.9503 223.615 8.93907C223.227 8.61749 222.834 8.30452 222.436 8.00025C222.928 8.35854 223.321 8.65629 223.642 8.90195C224.504 9.55657 224.789 9.68678 225.092 9.8948C226.685 10.9915 229.034 12.2708 230.728 12.9039C232.713 13.6267 232.752 13.5318 235.124 14.1623C234.561 14.0078 234.004 13.8376 233.452 13.6512C235.077 14.1234 236.743 14.4586 238.425 14.6521C234.513 14.2731 239.263 14.8082 239.58 14.7624C240.081 14.7898 239.357 14.8123 240.196 14.8533C240.282 14.8517 240.16 14.8038 241.451 14.821C244.147 14.7834 243.725 14.8166 244.856 14.7287C244.957 14.7076 244.597 14.7339 246.53 14.4386C252.601 13.1297 246.525 14.5615 246.271 14.5305C245.954 14.5294 248.139 14.6993 242.826 15.012C244.61 14.9596 244.799 15.0028 245 14.9933C245.184 15.0154 248.248 14.4978 248.406 14.4188C249.883 14.0353 248.56 14.2748 248.846 14.1938C249.089 14.1806 252.695 13.1707 253.393 12.5751C255.095 12.0269 252.564 13.273 249.667 14.0666C249.263 14.2507 252.426 13.3185 252.575 13.2135C256.502 11.5774 254.25 12.3155 255.053 11.8498C255.468 11.5958 257.029 10.8814 255.563 11.4935C258.894 9.63377 256.908 10.8181 257.135 10.7197C257.471 10.5528 258.576 9.79477 258.714 9.69896C258.923 9.5669 258.242 10.0923 259.056 9.55805C259.191 9.4684 260.413 8.49425 258.744 9.61877C259.213 9.30268 259.565 9.04382 259.842 8.83422C261.113 7.89068 261.126 7.87891 261.922 7.49333C263.684 6.05022 263.401 6.78374 264.173 6.35567C266.26 5.28372 265.575 5.4276 265.676 5.35343C266.36 4.77686 272.543 2.589 274.163 2.3777C273.557 2.59891 269.163 3.73259 268.251 4.21511C265.14 5.53528 272.75 2.65457 270.512 3.69236C271.467 3.32014 272.439 2.98795 273.426 2.69674C275.299 2.45416 272.671 2.88894 277.655 2.09092C278.457 1.84112 274.127 2.64407 274.986 2.4317C275.482 2.24999 278.395 1.85125 278.453 1.84517C278.505 1.78505 275.873 2.16768 276.282 2.07036C277.158 1.574 286.882 1.52721 279.499 1.77147C281.556 1.65012 282.613 1.88551 284.387 1.9246C284.963 1.94163 283.641 1.76612 283.382 1.68865C283.115 1.66334 283.966 1.35622 288.787 2.20016C288.98 2.29066 284.921 1.64937 284.806 1.70432C284.656 1.70284 285.376 1.99498 285.501 2.0209C285.988 1.79342 295.707 3.97956 297.436 5.34383C296.882 4.89535 301.884 7.51128 303.773 9.08899C304.108 9.33935 304.36 9.51372 304.468 9.58202C304.638 9.68963 304.074 9.18622 304.254 9.30429C305.337 10.0893 308.401 12.0448 309.979 12.6649C311.719 13.3935 311.534 13.2035 311.629 13.2489C312.408 13.5305 311.768 13.3554 312.247 13.5208C312.94 13.8858 318.092 14.9981 318.374 14.9125C318.451 14.9181 317.61 14.7372 318.748 14.8557C318.947 14.8415 318.806 15.074 322.203 15.085C326.283 14.9492 319.372 14.9768 321.07 14.8508C323.679 15.0341 323.594 14.8137 324.298 14.7943C324.54 14.7813 326.38 14.7658 328.325 14.3384C326.934 14.6524 325.52 14.8685 324.096 14.9843C325.503 14.9421 328.197 14.4728 329.319 14.1903C329.869 14.0607 329.446 14.2862 330.63 13.9487C330.875 13.8524 331.82 13.4171 328.735 14.3012C328.467 14.2779 329.966 13.9863 330.636 13.751C330.737 13.7153 331.101 13.467 331.98 13.2583C332.162 13.1362 330.198 14.618 335.666 11.8503C335.838 11.7543 335.203 12.0106 335.37 11.9156C335.489 11.8603 336.874 11.1547 337.016 11.0534C337.166 10.9608 336.482 11.2777 336.659 11.1657C337.563 10.5964 338.887 10.0548 336.968 11.167C337.627 10.8279 338.276 10.4629 338.911 10.0752C338.261 10.3246 339.424 9.66258 340.27 9.04553C340.442 8.9215 340.605 8.8041 340.749 8.6994C347.359 4.37627 342.868 7.1604 343.984 6.37709C345.875 5.25209 344.501 6.23719 347.407 4.78036C347.709 4.72353 343.932 5.89317 351.175 3.29881C350.093 3.64324 349.028 4.03733 347.982 4.48102C348.632 4.339 351.823 3.06372 352.093 3.02495C355.015 2.26927 353.017 2.6751 357.432 1.87503C357.828 1.8148 358.7 1.75446 359.553 1.67491C363.093 1.31657 354.874 2.04278 354.666 2.23412C354.519 1.98156 363.39 1.19554 363.701 1.48634C364.993 1.55652 359.674 1.49425 360.692 1.60075C360.872 1.60895 364.139 1.43912 367.627 1.97632C371.125 2.45303 374.733 3.71482 375.89 4.22348C378.589 5.37225 379.593 6.27701 379.738 6.04885C380.344 6.66001 381.045 6.88459 381.365 7.08343C382.656 7.88972 383.47 8.48662 384.126 8.97772C385.2 9.76646 385.782 10.1966 387.636 11.2281C388.256 11.5655 388.758 11.8975 388.989 11.9959C389.124 12.0515 388.913 11.8656 389.567 12.1457C390.419 12.68 396.078 14.5049 396.545 14.4953C396.966 14.6482 394.085 13.9639 394.585 14.1453C396.663 14.6938 398.714 14.9895 400.874 15.1009C401.772 15.1401 401.309 15.1724 401.698 15.1841C401.865 15.2278 404.968 15.0645 404.832 15.0225C404.679 15.0219 402.207 15.1991 400.095 15.0118C397.983 14.8503 396.262 14.462 397.507 14.6422C397.985 14.7158 399.678 15.0184 399.421 14.843C406.845 15.601 414.518 13.4934 420.516 9.01266C421.548 8.2466 422.613 7.53837 423.719 6.88432C422.652 7.54625 421.593 8.26792 420.55 9.05742C417.328 11.5185 413.344 13.3275 409.403 14.2629C408.722 14.4559 406.369 14.8315 406.663 14.8473C411.029 14.3074 416.176 12.208 419.636 9.79461C419.748 9.71931 419.377 10.054 419.798 9.77538C419.994 9.645 420.292 9.43016 420.632 9.1678C421.84 8.2178 423.675 7.01944 424.091 6.81342C424.179 6.75499 422.448 7.92594 423.017 7.63761C424.469 6.90048 424.676 6.43685 425.926 5.79187C426.83 5.12961 433.74 2.7923 435.553 2.55761C437.411 2.0046 430.315 3.74797 430.841 3.64633C435.522 1.98245 440.627 1.50131 445.287 1.86638C445.37 1.87331 444.659 1.75015 445.703 1.8269C447.519 1.98629 447.976 2.17631 448.844 2.33591C449.79 2.47384 453.062 3.30515 453.471 3.50967C453.524 3.52987 452.846 3.41546 452.746 3.39061C451.33 3.0194 450.847 2.80824 450.717 2.77197C450.229 2.65391 449.738 2.59731 449.289 2.50903C448.55 2.36685 448.149 2.25351 447.163 2.11778C446.482 2.03023 447.13 2.18916 446.474 2.10927C446.239 2.05728 443.634 1.69579 443.383 1.90051C443.335 1.93792 447.826 1.9576 452.652 3.42563C457.517 4.78072 462.359 7.77602 464.213 9.2228C464.522 9.45014 464.752 9.61008 464.882 9.69737C464.662 9.53668 464.443 9.37272 464.226 9.2055C463.031 8.28903 461.78 7.44652 460.481 6.68427C461.766 7.43993 463.118 8.31894 464.257 9.16453C465.686 10.223 466.91 10.9267 466.979 11.1237C476.97 17.1734 490.45 16.7299 500.031 10.005C500.537 9.66241 500.815 9.47479 501.03 9.33851C501.494 9.0396 501.683 8.95993 502.945 8.01481C503.215 7.81279 503.532 7.57756 503.912 7.30538C503.575 7.52006 503.241 7.74049 502.909 7.96667C502.42 8.29771 501.93 8.62876 501.441 8.9598C501.744 8.74116 502.248 8.37344 502.872 7.91698C505.56 5.77477 511.107 3.13549 512.236 2.77894C512.416 2.71768 512.599 2.45132 514.768 1.7464C516.703 1.15614 517.051 1.20125 518.105 0.979177C518.992 0.79975 519.99 0.606119 520.257 0.570748C520.461 0.543225 520.55 0.586985 521.042 0.528194C522.595 0.363305 521.321 0.342665 522.883 0.373681C522.508 0.415114 522.133 0.461939 521.76 0.514136C523.635 0.307681 526.202 0.308874 523.445 0.505661C522.973 0.550927 523.375 0.460783 523.021 0.490851C509.372 2.97855 520.207 0.53349 525.087 0.397381C526.344 0.26359 533.312 0.867837 533.52 1.06999C533.832 1.15416 532.649 0.995644 534.172 1.34905C534.563 1.16914 543.378 4.17633 540.179 3.16439C539.546 2.87927 535.282 1.57988 534.21 1.4378C536.68 1.98608 542.304 3.84696 542.876 4.22848C545.301 5.37608 538.121 2.24153 543.602 4.77297C543.714 4.82864 543.819 4.88193 543.919 4.93279C547.343 6.6763 543.948 4.82858 545.438 5.52742C546.298 5.93101 550.676 8.29553 550.632 8.08233C552.164 8.83736 551.232 8.46655 551.417 8.56755C551.598 8.66576 554.615 10.1366 555.571 10.661C555.687 10.7247 555.276 10.6158 555.394 10.684C555.626 10.8152 558.522 12.2618 558.641 12.3139C558.717 12.3466 558.064 11.9287 558.356 12.0553C558.695 12.2029 561.466 13.6265 561.629 13.6843C561.861 13.764 558.42 12.0463 559.031 12.2584C560.602 13.0787 563.205 14.3318 564.28 14.798C564.015 14.6863 562.481 13.9124 561.952 13.6366C562.26 13.65 565.551 15.3188 564.38 14.8386C565.12 15.1526 564.645 14.8797 565.07 15.0383C565.182 15.0802 566.2 15.5927 566.405 15.6722C566.433 15.6812 565.406 15.1073 565.627 15.1906C566.029 15.3415 569.106 16.9116 569.353 17.0503C570.047 17.4407 567.515 16.2056 567.281 16.1473C567.248 16.1396 569.338 17.3157 569.366 17.3404C569.446 17.4925 567.1 16.2241 567.331 16.4418C567.911 16.7566 568.49 17.0713 569.07 17.3861C566.76 16.3182 562.585 14.1511 561.456 13.6952C564.833 15.3711 568.351 17.157 568.239 17.3608C568.192 17.447 566.715 16.7634 566.76 16.814C566.934 17.0019 568.992 17.9357 569.064 17.9774C569.123 18.0132 569.148 18.0321 569.146 18.0367C569.146 18.0367 569.146 18.0367 569.146 18.0367C569.122 18.0832 566.234 16.6626 566.079 16.611C565.819 16.5264 567.018 17.3291 566.999 17.3625C566.951 17.3468 564.887 16.348 565.547 16.7574C566.214 17.1716 568.003 18.0793 568.063 18.1174C568.386 18.3268 565.239 16.7743 565.135 16.7485C565.08 16.7343 566.728 17.6523 566.767 17.6962C566.799 17.7366 565.5 17.1314 564.966 16.9369C564.568 16.7918 565.643 17.3799 565.448 17.2896C565.308 17.2247 562.35 15.7258 562.201 15.6601C561.978 15.5621 562.644 15.9668 562.536 15.9291C562.383 15.876 561.438 15.3729 561.552 15.4557C561.638 15.5178 565.247 17.5786 565.198 17.616C565.113 17.679 561.29 15.4986 564.77 17.6799C564.795 17.695 565.695 18.1212 565.719 18.1357C566.236 18.4746 563.34 17.1269 566.831 18.8737C560.3 15.7 565.96 18.5924 564.93 18.2493C564.532 18.1165 562.01 16.8675 561.994 16.8697C562.203 17.0626 563.03 17.414 563.285 17.5857C563.425 17.6805 561.141 16.6161 561.623 16.9198C561.872 17.0767 564.261 18.2756 564.357 18.3303C565.278 18.8533 564.096 18.3159 564.287 18.4529C564.414 18.5442 565.852 19.2746 565.888 19.2975C565.944 19.3362 563.946 18.4335 563.524 18.2579C563.202 18.1247 564.345 18.7496 564.124 18.6505C562.792 18.053 560.104 16.4953 562.66 18.0647C562.816 18.1605 563.828 18.666 563.856 18.6837C564.448 19.0614 562.588 18.1262 562.23 18.0087C561.615 17.8073 564.309 19.1105 562.058 18.0477C563.694 18.9483 564.624 19.4159 566.581 20.3869C561.162 17.6986 559.143 16.9606 565.137 19.9889C563.233 19.0203 563.379 19.2552 562.81 18.9695C562.455 18.7917 559.757 17.2652 560.879 18.192C561.02 18.3081 562.721 19.1129 562.159 18.9196C558.14 16.8608 562.05 18.9227 562.049 18.9344C561.912 19.076 552.138 13.9532 550.437 13.1158C548.463 12.144 546.651 11.3931 546.225 11.1772C544.821 10.4664 546.02 10.9891 545.718 10.8054C545.487 10.6649 543.106 9.54631 541.878 8.96402C541.508 8.78979 541.248 8.67397 541.204 8.65018C540.487 8.27608 541.267 8.54514 541.193 8.50578C540.354 7.91435 535.013 6.09876 533.442 5.88452C533.486 5.92325 536.539 6.70656 534.61 6.30968C532.362 5.89416 532.266 5.68326 532.21 5.64858C523.068 4.05629 513.325 6.39991 505.916 11.9899C505.295 12.4543 504.674 12.9187 504.053 13.3831C503.559 13.7523 503.062 14.1048 502.551 14.448C502.612 14.4552 503.254 14.0564 504.094 13.4378C504.651 13.0282 505.31 12.5342 505.958 12.0459C507.297 11.0275 508.682 10.1747 508.75 10.1444C509.087 10.0002 507.706 10.7998 505.995 12.0948C505.411 12.5358 504.778 13.0117 504.136 13.4937C501.518 15.4994 498.376 17.0314 497.652 17.3224C498.792 16.8285 499.91 16.2732 500.995 15.6622C499.272 16.9436 494.866 18.7337 491.892 19.5196C490.935 19.7963 492.799 19.3616 492.76 19.3666C491.702 19.7503 489.934 20.0974 491.224 19.7108C488.577 20.3912 488.942 20.2071 486.869 20.4892C486.761 20.4983 487.666 20.4688 486.017 20.6701C485.246 20.8211 481.092 20.8809 480.534 20.8434C480.3 20.8649 482.411 21.1858 482.674 20.9581C487.207 20.9124 484.116 20.825 485.869 20.7178C486.13 20.6498 485.554 21.0252 489.907 20.184C489.135 20.6566 484.016 21.0626 483.141 21.0051C481.328 21.1762 488.811 20.8811 490.091 20.2233C489.497 20.508 490.623 20.1673 492.225 19.7355C493.974 19.2396 493.228 19.5042 494.166 19.2036C496.705 18.2963 495.617 18.5832 497.696 17.8001C495.603 18.4165 501.121 16.1736 502.566 15.1603C500.208 16.7265 497.661 18.0205 494.998 19.0002C495.156 18.9611 495.315 18.9207 495.473 18.8796C494.771 19.1415 494.063 19.3809 493.346 19.5991C493.456 19.5482 493.565 19.4967 493.675 19.4447C490.012 20.6661 489.012 20.5524 488.714 20.6361C484.73 21.3278 480.002 21.3064 475.986 20.5418C475.396 20.3844 475.732 20.7719 471.461 19.4329C470.116 18.9576 471.415 19.32 469.891 18.7882C467.924 18.2748 468.038 18.0839 467.489 17.8462C465.923 17.1303 464.984 16.6475 464.842 16.5738C463.629 15.9096 462.101 14.9458 460.714 13.9043C460.085 13.4335 459.452 13.0013 458.873 12.6341C458.842 12.6152 459.658 13.2219 458.602 12.5216C458.256 12.2656 454.906 9.92609 451.468 9.0326C452.337 9.32076 453.191 9.6472 454.028 10.0112C453.113 9.33483 445.741 7.79332 447.523 8.28787C448.625 8.48471 451.331 9.00657 451.557 9.29753C450.395 8.87344 446.412 7.8407 442.51 7.89165C438.608 7.85371 434.986 8.82108 434.475 8.94703C434.329 8.97767 435.197 8.69075 434.997 8.73517C434.831 8.73039 431.818 9.67969 431.433 9.85121C431.193 9.92377 432.491 9.40463 432.379 9.42792C432.258 9.38902 428.604 10.915 428.463 11.143C429.3 10.6412 431.836 9.62953 430.539 10.2363C430.373 10.3108 429.483 10.6577 429.288 10.7662C427.443 11.6985 433.07 9.14099 434.05 9.03783C431.195 9.89362 427.274 11.6077 424.206 13.9497C423.095 14.7815 421.979 15.5222 420.91 16.1703C419.012 17.2343 423.607 14.3994 421.488 15.6495C417.016 18.0946 420.357 16.4121 420.23 16.5019C419.178 17.2534 415.081 18.6603 415.154 18.8484C413.395 19.4312 413.966 19.2475 411.458 19.9781C411.795 19.9092 412.132 19.8352 412.467 19.7567C409.722 20.8679 403.53 21.0285 404.001 20.9021C405.228 20.8109 408.391 20.5039 408.656 20.4236C409.045 20.3053 410.124 20.0635 414.362 18.8926C415.179 18.5039 413.538 19.0903 412.121 19.4566C410.703 19.8251 409.541 20.065 411.453 19.5375C408.915 20.7083 397.841 20.799 396.306 20.1867C396.12 20.1506 396.949 20.5319 394.295 19.8859C393.042 19.5638 396.089 20.2267 395.519 20.0569C394.598 19.8719 386.834 18.1962 380.765 13.4742C376.33 10.0695 370.96 8.48116 369.164 8.1172C368.908 8.05897 369.014 8.02765 368.762 7.97282C367.99 7.77493 365.118 7.41854 363.701 7.36245C366.624 7.63551 360.934 7.28262 359.493 7.53708C357.306 7.74158 357.431 7.67744 356.488 7.8133C352.804 8.29692 347.629 10.7941 345.188 12.27C345.292 12.3099 344.556 12.7667 343.57 13.46C342.027 14.5781 339.733 15.8502 338.352 16.5359C336.502 17.5063 333.694 18.7106 336.357 17.7211C333.023 19.1682 329.287 20.1563 325.895 20.5212C325.334 20.5803 326.1 20.4453 325.144 20.5398C325.057 20.5466 324.943 20.6246 324.118 20.6813C317.296 20.8271 320.621 20.573 319.351 20.5277C318.643 20.4532 318.122 20.3846 317.74 20.3355C321.682 20.8623 326.259 20.3682 327.453 20.1459C326.429 20.3723 318.694 20.7385 316.466 20.1113C316.389 20.098 316.67 20.0674 316.591 20.0546C316.589 20.0544 316.588 20.0541 316.586 20.0539C315.728 20.0304 310.509 18.6674 311.561 19.02C311.837 19.1261 314.226 19.8789 317.158 20.2625C316.364 20.1663 316.943 20.3318 316.803 20.3154C315.084 20.172 311.025 19.0338 309.653 18.4513C309.334 18.3313 309.339 18.3882 309.287 18.3688C308.029 17.8638 308.601 17.9384 307.266 17.5257C305.087 16.4003 311.526 19.2469 311.142 18.8483C310.896 18.8096 304.217 16.3113 300.558 13.3905C298.947 12.2182 297.639 11.5334 297.63 11.5787C297.597 11.5416 297.45 11.4303 297.127 11.2232C296.444 10.7095 292.992 9.17721 292.35 9.04111C292.245 9.00947 292.238 9.15905 292.11 9.11558C291.818 8.93901 287.407 7.61629 285.671 7.59235C286.586 7.72439 287.495 7.89731 288.392 8.11014C282.902 7.16014 283.723 7.56229 285.568 7.72793C285.66 7.73928 285.749 7.75576 285.836 7.76758C287.259 7.96731 289.042 8.41083 289.065 8.43336C289.112 8.46322 286.845 7.93347 284.741 7.75395C282.641 7.54737 280.737 7.61589 281.642 7.52512C281.898 7.4337 286.244 7.80219 284.098 7.54807C283.722 7.47048 280.916 7.46535 280.769 7.49093C279.775 7.35097 285.92 7.44215 285.181 7.38208C283.683 7.31228 281.763 7.2007 280.05 7.33346C279.271 7.39351 279.088 7.49036 278.993 7.49908C277.567 7.66788 278.36 7.51017 277.884 7.56839C277.62 7.57001 274.874 8.25311 275.354 7.94402C266.475 10.8495 272.792 8.26718 278.478 7.58789C276.687 7.81584 273.234 8.58442 271.756 9.16981C271.224 9.36698 271.561 9.31589 270.674 9.67127C269.595 10.082 266.155 11.6089 263.449 13.6593C261.219 15.3172 258.943 16.5241 257.878 17.038C259.438 16.2049 258.943 16.3788 257.732 16.998C256.51 17.5944 257.585 17.1957 257.351 17.3211C257.149 17.5794 251.12 19.757 250.042 19.8633C254.676 18.5443 253.612 18.8208 249.665 19.8192C250.235 19.6676 250.8 19.5026 251.361 19.3236C249.083 20.0893 244.078 20.5697 242.703 20.5585C242.487 20.571 243.265 20.6144 243.144 20.6209C241.933 20.7653 237.827 20.4436 237.641 20.3931C237.476 20.4018 239.219 20.6244 238.568 20.5916C238.431 20.5871 236.751 20.3449 235.111 20.0515C234.501 19.9429 234.855 20.0755 234.701 20.0492C233.424 19.8027 234.185 19.906 231.887 19.3081C230.216 18.8308 228.939 18.5228 226.751 17.5027C234.087 20.4965 227.796 18.2777 224.858 16.7028C224.399 16.4393 224.689 16.8453 222.016 15.1109C227.002 17.8485 222.387 15.3825 220.105 13.6347C219.728 13.3565 219.405 13.1317 219.206 12.9934C219.138 12.947 219.161 12.862 218.539 12.4504C218.486 12.4172 218.536 12.5046 217.951 12.1405C212.21 8.99333 215.889 10.9883 214.816 10.3509C214.359 10.0652 211.362 8.96298 210.526 8.76264C210.336 8.70777 210.441 8.67582 209.702 8.47463C208.394 8.12481 207.19 7.95609 206.309 7.8267C206.205 7.81933 206.218 7.69789 204.529 7.5502C204.054 7.5134 203.52 7.50694 204.191 7.5825C206.417 7.781 210.618 8.56957 212.928 9.63734C215.068 10.474 208.226 8.07225 207.799 8.20059C207.663 8.17091 209.059 8.42349 207.651 8.11979C206.445 7.85973 204.199 7.70389 202.375 7.64405C202.237 7.6292 200.773 7.51353 200.839 7.51197C200.9 7.48496 203.153 7.49074 202.828 7.45692C202.789 7.44357 201.355 7.42235 201.167 7.40745C200.939 7.37689 200.306 7.07787 199.994 7.08784C199.198 7.11489 199.72 7.1554 199.207 7.18692C198.101 7.1923 194.312 7.80007 194.227 7.98658C194.843 7.84344 195.461 7.7193 196.084 7.61377C192.648 8.33617 194.134 8.11344 193.653 8.23434C193.144 8.39806 193.259 8.25031 192.126 8.59263C191.845 8.57656 187.29 10.5197 187.427 10.5949C189.857 9.33805 189.007 9.91789 189.117 9.85481C189.556 9.67004 190.096 9.37273 190.697 9.14927C194.98 7.71411 190.691 9.25058 191.713 8.94102C192.06 8.83091 192.74 8.56155 192.891 8.52259C193.378 8.39167 193.407 8.46363 193.729 8.37104C194.485 8.16183 193.572 8.28642 193.63 8.26691C194.288 7.99158 197.011 7.55253 195.353 7.99608C196.366 7.83676 196.462 7.68307 197.276 7.61849C198.894 7.51904 196.488 7.79378 195.852 7.95694C193.572 8.51029 192.857 8.57595 189.771 9.80861C188.666 10.2674 187.432 10.9716 186.952 11.2417C186.628 11.3665 183.699 12.9372 183.86 13.3301C183.671 13.4562 183.461 13.5927 183.238 13.7385C182.033 14.5498 180.417 15.3979 179.318 16.0254C178.111 16.7099 178.555 16.6041 178.444 16.6727C178.277 16.7807 176.766 17.5221 176.247 17.7609C175.644 18.0481 175.975 17.9683 174.999 18.3894C172.549 19.3862 172.547 19.1653 172.292 19.2535C169.247 20.0313 170.612 19.8115 169.94 20.0091C169.352 20.444 160.246 21.2945 158.327 20.852C159.107 20.8932 159.889 20.9092 160.669 20.9C159.278 20.7911 157.796 20.7749 157.785 20.6215C157.475 20.8604 154.638 20.2838 153.802 20.074C153.468 20.0033 153.485 20.0503 153.068 19.954C151.425 19.6276 147.887 18.3337 147.066 17.9495C143.4 16.5268 152.657 20.4595 153.548 20.3159C151.911 20.2467 143.579 16.8121 147.349 18.5243C147.935 18.7936 149.036 19.0901 149.377 19.2012C151.693 19.9431 149.847 19.4349 150.024 19.5042C150.327 19.6293 151.89 19.9942 152.298 20.1014C152.437 20.1312 151.523 20.0285 153.79 20.5506C152.609 20.5469 146.431 18.3301 145.708 17.8406C145.458 17.6642 146.982 18.8798 142.2 15.9441C142.246 15.9927 142.293 16.0412 142.34 16.0896C141.347 15.4872 140.386 14.8397 139.453 14.1456C138.158 13.1834 136.789 12.3255 135.361 11.5828C135.625 11.6746 136.931 12.2962 135.324 11.4495C134.386 10.9828 135.038 11.4118 134.951 11.3703C134.546 11.1699 130.576 9.15861 125.935 8.4981C121.311 7.71114 116.335 8.47241 114.793 8.86913C113.713 9.06541 110.843 10.0774 110.64 10.192C109.304 10.587 104.958 12.8914 104.211 13.546C103.715 13.9013 104.231 13.6261 103.785 13.9396C103.372 14.2352 103.756 13.8691 103.633 13.9554C103.557 14.0078 103.447 14.0872 103.306 14.1914C101.35 16.1226 92.0653 20.465 89.4345 20.6124C91.176 20.5156 98.8845 17.1303 98.6152 16.9884C98.5857 17.0108 96.7488 17.8793 96.3707 18.0617C95.7256 18.3068 93.5836 19.3694 92.3259 19.7066C92.1824 19.7359 92.7123 19.5119 90.4852 20.1055C89.7201 20.3042 87.7012 20.8631 85.6088 21.0136C84.1204 21.2489 79.3396 21.5608 74.9101 20.7129C70.4635 19.9625 66.5514 18.1845 66.0431 18.0054C66.0061 18.0087 68.0575 18.9211 66.6429 18.3703C64.7776 17.5912 66.498 18.1863 64.4046 17.1282C64.1529 17.0377 60.8344 15.156 59.3193 13.9624C58.9047 13.6572 58.6142 13.4599 58.5773 13.4374C57.8735 13.0235 58.4825 13.4729 59.2382 14.0709C60.1611 14.8047 61.3523 15.5929 61.3157 15.5751C61.2227 15.5361 60.1798 14.8799 59.1852 14.1419C58.361 13.532 57.499 12.9808 57.4338 12.9349C57.3097 12.8407 60.0742 14.4723 56.8135 12.4256C57.182 12.6707 57.5414 12.9214 57.8978 13.1815C56.3685 12.2236 56.2521 12.0831 55.8762 11.8542C54.6897 11.1763 53.3153 10.6543 51.331 9.72531C50.8027 9.48202 51.7289 9.74949 51.6632 9.71966C51.03 9.41068 50.1313 9.30512 49.1594 8.89291C49.0789 8.88341 51.4885 9.36312 47.3257 8.35442C47.6115 8.42753 47.8962 8.50475 48.1798 8.58608C47.5999 8.39627 43.3117 7.79832 42.723 7.84005C41.0241 7.75622 42.5106 7.69133 40.7959 7.69165C41.8885 7.74765 36.7094 8.05851 36.9974 8.00034C36.287 8.17039 31.9396 8.98426 30.0217 9.8259C28.7826 10.2674 26.4274 11.5351 26.0742 11.755C25.6305 12.0002 25.7125 11.83 24.9161 12.292C24.7775 12.3749 23.8529 12.9711 22.7422 13.7987C21.9874 14.3603 21.1301 14.9843 20.3006 15.5557C19.8816 15.8444 18.9267 16.3503 19.6587 15.7512C20.448 15.1052 21.7446 14.1817 22.5735 13.573C23.025 13.242 23.3329 13.0242 23.3009 13.0015C23.2718 12.9828 22.9566 13.1808 22.5181 13.4988C21.4631 14.2659 19.7123 15.6082 19.0925 16.0597C14.9525 19.0749 17.2542 17.2148 17.1284 17.2665C16.8055 17.405 14.5658 19.0824 14.4678 19.1463C14.0605 19.4097 15.6098 18.1704 15.6037 18.1122C15.5934 18.0382 13.3624 19.5585 13.8403 19.1737C14.5246 18.6231 16.5689 17.2179 16.692 17.12C18.2926 15.8444 15.9561 17.4022 15.2926 17.8054C15.0913 17.9274 15.8165 17.3384 15.6569 17.4494C13.221 19.1432 15.2834 17.9937 13.6912 19.1577C12.2706 20.1962 14.0245 18.7612 13.9674 18.797C13.8942 18.8442 12.2058 20.0995 11.921 20.2685C11.7804 20.3516 16.0447 16.923 15.81 16.9904C14.4239 18.0502 13.0378 19.1101 11.6518 20.17C11.4746 20.1614 13.5344 18.7255 13.7354 18.5608C14.1399 18.2292 12.9386 19.0558 12.9673 18.9898C12.9806 18.9515 14.3019 17.8627 13.0444 18.761C12.6122 19.0696 11.7671 19.8002 10.1697 20.8932C15.4984 16.7811 11.7248 19.5225 11.542 19.6093C11.3624 19.6936 13.8795 17.6945 10.7657 20.0428C10.4987 19.968 10.7915 19.9368 11.656 19.2424C12.7149 18.3916 10.1585 20.2121 14.1655 17.2855C13.8778 17.3721 10.6879 19.7656 10.5138 19.8854C10.3633 19.9886 11.0431 19.4173 10.7796 19.5929C7.66601 21.672 9.7772 20.2073 8.83387 20.7539C8.74994 20.8024 5.89139 22.8804 8.03509 21.2549C11.9406 18.2937 13.6686 17.1841 14.1416 16.4413C11.1569 18.5033 7.75915 21.2942 6.87851 21.9567C5.53041 22.9706 6.89191 21.8735 6.71476 21.9837C6.65349 22.0223 5.49238 22.8967 5.47372 22.9044C4.5012 23.3345 10.6543 19.0271 12.5227 17.5789C11.994 17.9297 11.4652 18.2804 10.9364 18.6312C11.624 18.1155 12.3116 17.5997 12.9992 17.084C9.67662 19.4782 12.8674 17.1487 13.5699 16.3832C13.7276 16.2114 11.6174 17.8813 14.0033 15.9478C12.1738 17.2806 12.7285 16.8169 11.1195 18.0874C11.1157 17.9939 14.7569 15.1635 16.1899 14.0429C10.9917 17.8202 14.0959 15.8533 9.55735 19.0588C8.78955 19.752 10.9019 18.1498 10.7382 18.2918C10.1509 18.8016 8.64058 19.8181 7.00236 21.2907C6.73578 21.5307 8.00655 20.7062 6.21214 22.0414C6.01359 22.189 4.82069 22.9735 4.83279 22.9567C4.94389 22.7898 6.08859 21.9656 6.11843 21.9082C6.14629 21.8543 4.89558 22.8091 4.88682 22.8064C4.79769 22.7679 5.91909 21.9947 5.74496 22.0919C5.36867 22.3016 0.726998 25.545 6.67504 21.1652C1.81793 24.9146 6.10154 21.7099 7.99333 20.2502C8.47586 19.8781 8.56935 19.7454 9.25428 19.2117C10.1352 18.525 11.1966 17.7617 11.6539 17.4084C12.1457 17.0281 9.24602 19.0471 13.3581 16.0178C11.2053 17.4793 7.60333 20.3291 5.50852 21.7912C1.28201 24.741 8.26339 19.4776 8.98319 18.9193C9.17491 18.7705 8.48264 19.2031 8.60971 19.103C8.81776 18.9395 12.811 15.9938 13.1693 15.6559C13.5265 15.3188 11.7151 16.7461 11.5573 16.7909C11.4504 16.8215 16.2032 13.1817 13.5916 15.1002C11.7916 16.4226 8.58899 19.0142 7.9316 19.293C10.554 17.3152 13.1764 15.3374 15.7988 13.3596C14.3201 14.3841 12.8413 15.4085 11.3626 16.4329C14.3031 14.2093 16.8997 12.3597 19.6486 10.1891C15.0017 13.4871 17.6048 11.5086 19.7965 9.85779C20.9057 9.01836 21.9741 8.34567 22.0043 8.31626C22.0226 8.28973 20.6993 9.04624 19.7002 9.72894C19.2151 10.053 18.797 10.3326 18.6456 10.4326C18.9204 10.2176 19.263 9.95246 19.6464 9.657C22.6109 7.18271 28.9136 4.38562 24.3645 6.35204C25.2785 5.89731 27.4961 4.8092 27.4718 4.8261C27.1023 4.7658 22.3145 7.29084 23.0712 6.84017C23.9148 6.24494 25.2456 5.68988 26.686 5.05664C34.2313 2.29083 32.0743 2.26191 40.2253 1.62775C40.0618 1.6145 39.8982 1.60234 39.7344 1.59128C48.0527 1.289 56.4429 3.93303 63.0676 8.94783C63.4668 9.24851 63.8692 9.53647 64.2813 9.81649C66.6439 11.5189 73.811 14.336 77.5898 14.5508C78.3299 14.7081 82.0296 14.8958 82.3119 14.8447C82.832 14.8721 79.9796 14.9038 81.2689 14.9483C81.5506 15.1209 87.8149 14.4099 87.335 14.2872C86.6478 14.4427 84.469 14.7888 84.1047 14.7843C82.9953 14.7865 86.0528 14.7154 89.7494 13.6226C93.4748 12.6049 97.5658 10.2277 99.3072 8.84154C99.9719 8.34212 100.422 8.03175 100.545 7.93772C100.11 8.20413 99.679 8.48064 99.2518 8.76745C99.244 8.77251 99.2363 8.77758 99.2286 8.78264C99.236 8.7772 99.2435 8.77175 99.2509 8.76631C100.446 7.88938 101.69 7.08604 102.979 6.35962ZM46.7931 8.58068C46.0591 8.5114 44.246 8.19155 43.1565 8.15488C41.6479 8.05464 39.1193 8.48615 40.2032 8.12923C42.405 8.03944 44.6192 8.19055 46.7931 8.58068ZM80.1345 21.4898C78.3391 21.3642 79.7401 21.2813 81.206 21.3581C81.3678 21.3595 82.5705 21.5834 80.1345 21.4898ZM62.2629 16.1549C62.3247 16.1989 63.6703 16.973 63.7208 16.9945C64.8978 17.748 60.841 15.3981 62.2629 16.1549ZM139.742 14.1822C139.668 14.128 139.6 14.0781 139.537 14.0325C138.755 13.4767 138.979 13.7374 139.47 14.1228C139.694 14.2991 139.966 14.4951 140.237 14.666C140.302 14.7079 139.846 14.2602 139.742 14.1822ZM138.768 13.468C137.815 12.5956 135.446 11.5766 137.206 12.584C137.38 12.6734 138.817 13.4993 138.768 13.468ZM73.7828 20.6758C73.9901 20.6723 75.8072 21.0287 76.593 21.1275C76.5639 21.186 74.541 20.8438 73.7828 20.6758ZM115.059 8.73972C115.087 8.58142 109.998 10.1139 109.728 10.4175C110.459 9.97584 114.988 8.71078 115.059 8.73972ZM128.559 8.88087C128.433 8.8276 126.632 8.4683 126.676 8.52754C127.551 8.72115 129.139 9.05822 128.559 8.88087ZM155.964 20.943C156.087 20.9268 154.469 20.5414 158.353 21.1335C158.927 21.2133 156.866 21.0752 157.069 21.0971C157.495 21.1658 157.833 21.2078 158.106 21.2345C156.272 21.0956 154.393 20.7327 154.216 20.6789C153.379 20.4462 155.907 20.96 155.964 20.943ZM172.899 19.3572C173.25 19.2216 175.507 18.3971 176.008 18.1742C176.095 18.1375 175.763 18.406 176.75 17.9528C177.536 17.576 176.32 18.044 177.849 17.3187C179.382 16.553 177.379 17.6661 177.511 17.5962C177.707 17.5367 180.018 16.2305 179.966 16.3086C179.95 16.4 177.424 17.7223 176.775 17.995C175.957 18.3746 176.992 18.0104 175.598 18.5888C174.715 18.9384 175.152 18.6127 174.964 18.6814C174.821 18.7709 171.714 19.9004 172.904 19.356C172.902 19.3564 172.9 19.3568 172.899 19.3572ZM158.601 21.2709C158.463 21.2646 158.301 21.2536 158.106 21.2345C158.272 21.248 158.437 21.26 158.601 21.2709ZM50.9433 9.62121C51.6581 9.90706 49.4816 9.22053 48.6496 8.97693C48.6505 8.91136 50.8368 9.55509 50.9433 9.62121ZM160.305 21.2554C163.026 21.3103 161.024 21.4212 158.601 21.2709C159.371 21.3015 159.393 21.2092 160.305 21.2554ZM96.3707 18.0617C96.4796 18.0234 96.5526 18.0071 96.5718 18.0267C96.2845 18.1272 96.2535 18.1235 96.3707 18.0617ZM101.931 14.9853C103.68 13.6904 100.028 16.1788 100.048 16.1669C100.078 16.1902 101.867 15.0507 101.931 14.9853ZM141.826 15.6193C141.669 15.4966 144.38 16.9873 140.535 14.6776C142.504 16.0448 140.389 14.6537 140.414 14.6847C140.432 14.8305 143.883 16.9319 144.696 17.3074C145.356 17.5504 142.349 16.0337 141.83 15.622C141.829 15.6211 141.828 15.6202 141.826 15.6193ZM197.941 8.11878C197.498 8.22932 196.075 8.42356 195.128 8.63579C195.555 8.47138 196.976 8.22355 197.941 8.11878ZM457.535 11.9061C454.621 10.2967 452.819 9.72207 452.571 9.56684C452.303 9.45343 453.612 9.73105 456.324 11.1415C456.436 11.1872 457.902 12.0789 457.535 11.9061ZM399.667 21.0846C398.928 20.9186 401.402 21.0999 403.033 21.0894C403.401 21.0954 404.774 21.1536 403.212 21.2307C403.256 21.1074 400.853 21.0698 399.667 21.0846ZM161.842 21.2018C162.632 21.1389 165.061 21.0532 166.333 20.8726C165.568 21.0593 162.976 21.2402 161.842 21.2018ZM436.392 8.37374C435.7 8.50489 435.262 8.71601 435.382 8.6945C435.915 8.59786 437.189 8.27398 436.392 8.37374ZM154.041 20.4246C153.937 20.3892 157.115 20.8783 157.331 20.9769C156.643 20.917 154.109 20.4875 154.041 20.4246ZM196.125 8.36178C195.708 8.4055 197.837 8.00419 198.495 7.98213C198.445 8.01835 196.394 8.30813 196.125 8.36178ZM425.965 12.6287C425.512 12.9039 424.525 13.5871 424.164 13.8928C424.082 13.9593 424.025 14.0079 424.002 14.0324C423.962 14.0751 424.04 14.0278 424.187 13.9238C424.615 13.6114 425.798 12.7823 425.965 12.6287ZM543.414 10.2227C543.456 10.2561 542.576 9.86698 541.642 9.42932C541.083 9.16785 540.499 8.90886 540.11 8.72248C538.961 8.18908 540.405 8.73452 541.677 9.36031C542.557 9.7909 543.383 10.2018 543.414 10.2227ZM443.019 7.72596C445.006 7.88354 442.8 7.71576 442.885 7.82373C444.224 7.80142 447.53 8.20746 445.264 7.86323C444.822 7.7985 443.644 7.7379 443.019 7.72596ZM441.181 7.71402C440.967 7.74823 439.544 7.94233 440.779 7.8568C441.349 7.82106 442.272 7.68982 441.181 7.71402ZM528.777 5.83043C527.882 5.7394 529.497 5.77986 531.345 6.05696C533.197 6.31534 535.246 6.88069 535.356 6.92377C535.474 6.96455 535.551 6.99402 535.594 7.0128C535.896 7.05921 537.383 7.52792 537.526 7.66059C537.09 7.49479 535.873 7.12534 535.731 7.08237C535.671 7.06165 535.626 7.04576 535.595 7.03387C535.082 6.8059 529.14 5.7385 528.777 5.83043ZM515.31 7.54609C517.226 6.76376 517.656 6.92607 517.482 6.96907C515.36 7.68204 516.714 7.1207 516.646 7.12963C516.489 7.15384 515.002 7.73148 515.316 7.54396C515.314 7.54467 515.312 7.54538 515.31 7.54609ZM525.981 5.71736C526.065 5.70246 527.793 5.7341 527.864 5.7513C529.275 5.84506 524.395 5.76838 525.981 5.71736ZM183.994 13.2677C185.018 12.5908 184.064 13.3246 183.393 13.7913C183.339 13.8318 183.1 13.8835 183.994 13.2677ZM440.202 7.79129C439.889 7.58344 432.727 9.01676 433.229 9.17593C433.517 9.06849 435.654 8.44196 437.558 8.15582C439.458 7.84778 441.088 7.79039 440.202 7.79129ZM382.8 15.349C384.096 16.1541 382.615 15.3854 381.965 14.8878C381.722 14.7061 382.476 15.1462 382.8 15.349ZM149.882 19.191C148.363 18.7246 148.743 18.6444 150.016 19.1571C150.066 19.1767 149.941 19.2086 149.882 19.191ZM393.96 20.1203C388.882 18.6956 390.108 19.0785 396.762 20.4932C396.548 20.4764 396.335 20.4577 396.122 20.4371C403.94 21.414 396.629 20.7009 394.747 20.2188C394.029 20.0698 394.617 20.2623 393.965 20.1219C393.964 20.1214 393.962 20.1208 393.96 20.1203ZM376.802 11.3847C373.773 9.63799 378.12 11.6994 380.609 13.6826C381.288 14.1943 381.901 14.6147 382.333 14.8929C381.731 14.5283 381.106 14.1102 380.574 13.7307C379.379 12.9104 378.703 12.4556 380.503 13.8257C380.666 13.9538 380.847 14.0937 381.048 14.2451C380.852 14.1054 380.667 13.9702 380.492 13.8399C376.275 10.9469 378.148 12.2101 377.986 12.0461C377.755 11.8916 376.958 11.4782 376.802 11.3847ZM387.504 17.8668C387.767 17.9931 389.793 18.873 390.556 19.1034C389.449 18.8862 385.706 17.1129 387.504 17.8668ZM502.594 15.0826C502.703 14.9258 503.044 14.674 504.327 13.7496C504.373 13.7158 504.421 13.681 504.471 13.6454C504.43 13.6803 504.385 13.7188 504.335 13.7603C503.888 14.1347 503.126 14.7044 502.594 15.0826ZM45.468 7.99596C44.4705 7.82745 42.4604 7.6748 43.0723 7.78789C43.1414 7.77685 45.4611 8.01464 45.468 7.99596ZM420.37 16.1922C420.209 16.4416 414.184 19.1127 416.297 18.2656C416.998 18.1383 422.259 15.232 420.37 16.1922ZM447.79 8.13109C447.334 8.03265 445.455 7.80996 445.413 7.83482C445.282 7.85965 447.583 8.12534 447.79 8.13109ZM40.3814 7.62151C40.2453 7.57863 37.1608 7.83866 37.5058 7.86139C38.1498 7.81373 40.8365 7.61812 40.3814 7.62151ZM187.753 10.8266C187.984 10.7068 188.324 10.6243 188.405 10.587C188.562 10.4163 192.989 8.7324 191.324 9.44764C190.976 9.39661 184.855 12.3788 184.218 13.0513C183.866 13.1424 186.364 11.6379 187.001 11.327C187.11 11.267 187.136 11.1497 187.752 10.828C187.752 10.8275 187.753 10.8271 187.753 10.8266ZM509.29 10.3219C509.382 10.0596 514.447 7.61817 514.454 7.81282C512.665 8.5007 510.936 9.341 509.29 10.3219ZM506.896 11.8588C505.894 12.5139 508.169 10.876 508.907 10.4915C508.927 10.5093 507.031 11.7479 506.896 11.8588ZM437.259 7.85841C436.707 7.96348 438.428 7.78445 438.049 7.86439C437.805 7.90443 436.564 8.08071 436.18 8.19788C436.07 8.22543 437.339 8.06936 437.703 8.0169C438.22 7.93382 437.707 7.93828 438.273 7.85751C440.157 7.60246 441.849 7.58033 443.625 7.64412C443.786 7.64935 442.541 7.5558 443.913 7.60772C444.124 7.6196 445.394 7.74265 447.015 7.97633C450.623 8.35046 453.205 9.28227 457.292 11.3635C457.174 11.2197 454.082 9.6922 453.872 9.65842C450.351 8.02499 443.372 6.9976 439.339 7.58237C438.306 7.69449 438.814 7.68855 438.371 7.74521C438.022 7.79717 438.423 7.63751 437.259 7.85841ZM46.0067 8.02855C45.5452 7.85447 43.8532 7.69325 42.7722 7.64246C43.1484 7.73221 44.9668 7.82485 46.0067 8.02855ZM479.899 20.8247C479.259 20.797 477.294 20.5266 477.129 20.5163C476.911 20.5421 479.757 20.9032 479.899 20.8247ZM213.668 9.99846C213.719 10.0101 214.909 10.5536 214.949 10.5832C215.979 11.1283 212.418 9.51314 213.668 9.99846ZM246.577 20.592C247.733 20.4299 248.882 20.1728 249.28 20.1606C248.553 20.3224 246.449 20.6706 246.577 20.592ZM289.52 8.52248C289.352 8.35323 292.203 9.2542 292.714 9.49895C292.513 9.4294 289.659 8.59136 289.52 8.52248ZM502.22 14.973C503.659 14.0272 503.623 13.9053 504.153 13.5171C504.272 13.4274 504.421 13.3217 504.627 13.1836C504.776 13.0845 505.329 12.9515 504.296 13.7079C504.122 13.8351 503.907 13.9843 503.641 14.1558C503.279 14.376 504.613 13.398 502.22 14.973ZM397.861 20.6489C398.41 20.6615 400.105 20.8399 401.258 20.8678C400.998 20.9237 398.674 20.767 397.861 20.6489ZM34.8213 8.18536C33.9444 8.20272 30.1837 9.46352 31.1403 9.22834C31.2617 9.15523 34.2654 8.25188 34.8213 8.18536ZM167.275 20.4567C169.15 20.0748 165.243 20.7165 163.993 20.81C164.56 20.7933 167.151 20.5033 167.275 20.4567ZM279.241 7.63072C279.317 7.60932 281.042 7.51978 281.12 7.53309C282.532 7.52826 277.664 7.79344 279.241 7.63072ZM234.558 20.0723C235.271 20.2422 240.022 20.8485 241.105 20.8372C240.053 21.0632 233.634 20.0575 234.558 20.0723ZM494.337 18.8572C495.782 18.3572 497.127 17.8123 498.402 17.2201C498.18 17.4424 494.518 18.8879 494.337 18.8572ZM285.568 7.72793C285.66 7.73928 285.749 7.75576 285.836 7.76758C285.745 7.75383 285.656 7.74042 285.568 7.72793ZM461.745 14.1747C461.206 13.7806 460.999 13.6441 460.928 13.6186C460.893 13.6074 460.895 13.6246 460.908 13.6444C460.918 13.6584 460.933 13.6738 460.945 13.683C461.702 14.2878 462.923 15.0124 461.745 14.1747ZM44.792 7.72519C44.4261 7.58979 42.5859 7.48741 41.5284 7.46941C41.8352 7.52002 43.9466 7.61004 44.792 7.72519ZM372.691 9.35723C371.443 8.75157 376.695 10.7406 377.632 11.5131C377.723 11.5087 372.916 9.33263 372.691 9.35723ZM161.354 20.7994C161.226 20.7627 158.482 20.7068 159.062 20.7601C159.429 20.8193 161.431 20.8498 161.354 20.7994ZM379.986 13.06C380.173 13.1821 380.455 13.3932 380.685 13.5818C381.048 13.8752 381.316 14.1006 381.068 13.9488C380.932 13.8651 380.784 13.7576 380.639 13.6437C380.259 13.3417 379.899 13.0046 379.986 13.06ZM429.582 10.1592C429.35 10.2129 426.648 11.7208 427.805 11.1745C428.604 10.7983 428.696 10.6632 428.882 10.5696C429.067 10.412 433.699 8.63049 429.582 10.1592ZM342.983 14.1117C343.205 13.9478 343.437 13.776 343.673 13.5977C344.469 12.9951 345.385 12.4004 346.218 11.897C345.907 12.1082 344.517 13.0169 343.695 13.6267C343.37 13.8622 343.109 14.0379 342.983 14.1117ZM171.798 19.286C171.525 19.593 162.62 21.0065 167.692 20.2869C168.005 20.3242 172.799 19.1206 171.798 19.286ZM502.22 14.973C501.993 15.1191 501.73 15.2829 501.418 15.4668C501.726 15.281 501.991 15.1181 502.22 14.973ZM479.052 20.5972C479.545 20.6105 477.084 20.3251 476.363 20.1979C476.128 20.2369 478.981 20.6248 479.052 20.5972ZM346.265 11.795C346.852 11.4067 347.989 10.8159 348.776 10.4411C348.651 10.5226 346.535 11.654 346.265 11.795ZM294.829 10.1689C296.096 10.7643 297.593 11.6213 297.639 11.5934C297.66 11.6151 297.714 11.6569 297.806 11.7222C297.904 11.7816 299.189 12.5592 299.707 12.9576C301.253 14.1561 298.25 11.853 295.649 10.6056C293.047 9.39391 291.237 8.5149 296.267 10.7675C295.791 10.5552 295.313 10.3561 294.829 10.1689ZM228.396 18.1048C227.551 17.7298 225.192 16.6715 225.785 16.9839C226.179 17.2434 229.227 18.5222 228.396 18.1048ZM262.275 14.2236C262.055 14.3908 259.944 15.7743 259.893 15.818C261.185 15.1381 263.332 13.5431 262.275 14.2236ZM222.145 14.7749C221.665 14.453 221.003 14.1115 221.056 14.1538C221.511 14.5308 222.932 15.3493 222.145 14.7749ZM498.244 16.9052C497.472 17.2814 494.967 18.3821 494.411 18.6177C494.302 18.6417 494.015 18.7258 493.485 18.8738C493.486 18.8733 493.488 18.8728 493.49 18.8723C493.158 19.0359 487.591 20.5216 483.794 20.5244C480.026 20.4925 478.193 20.6977 485.631 20.5101C486.095 20.466 485.459 20.4958 487.341 20.278C487.465 20.2618 487.534 20.3034 487.917 20.2491C488.814 20.2048 493.444 19.11 494.311 18.6797C494.321 18.6856 494.382 18.6738 494.509 18.6379C495.664 18.3658 498.868 16.6523 498.244 16.9052ZM265.977 11.6794C265.586 11.8816 264.434 12.6548 264.343 12.7782C264.91 12.3851 266.871 11.1958 265.977 11.6794ZM171.481 19.1943C170.485 19.4748 167.935 20.0714 168.716 19.9427C169.209 19.9126 172.643 18.9148 171.481 19.1943ZM252.337 19.0686C257.956 17.1552 253.678 18.6115 254.513 18.2516C253.797 18.5473 253.073 18.8194 252.337 19.0686ZM520.299 5.87214C519.489 6.01263 520.413 5.69571 521.321 5.6286C521.605 5.60732 520.751 5.79413 520.299 5.87214ZM556.139 16.1845C555.518 15.7458 558.765 17.4631 557.453 16.8843C557.393 16.8566 556.185 16.2125 556.139 16.1845ZM531.427 5.59544C530.862 5.59545 530.506 5.53199 528.941 5.38807C531.258 5.58211 529.122 5.27977 531.427 5.59544ZM297.63 11.5787C297.636 11.5859 297.641 11.5917 297.639 11.5934C297.632 11.5859 297.629 11.5815 297.63 11.5787ZM217.907 11.8822C217.402 11.4777 215.813 10.6271 216.255 10.9395C216.302 10.9611 217.664 11.7747 217.907 11.8822ZM494.411 18.6177C494.508 18.5959 494.463 18.6198 494.311 18.6797C494.301 18.6741 494.338 18.6527 494.411 18.6177ZM227.06 17.4233C226.96 17.4649 229.894 18.6603 230.028 18.6642C231.774 19.168 228.234 18.0067 227.06 17.4233ZM150.872 18.9321C150.714 18.8896 151.684 19.3173 152.324 19.4312C152.816 19.5227 151.457 19.1023 150.872 18.9321ZM536.64 6.75335C537.475 7.00798 538.629 7.43772 538.817 7.5773C538.28 7.34432 536.612 6.78052 536.64 6.75335ZM554.892 15.4633C553.876 15.0258 551.626 13.8861 550.195 13.1485C550.209 13.0543 553.958 15.0141 554.892 15.4633ZM500.652 15.6579C500.59 15.7148 498.364 16.8696 498.689 16.756C499.19 16.6307 501.285 15.3355 500.652 15.6579ZM155.598 20.1177C156.71 20.2563 154.186 19.7282 153.02 19.5192C152.412 19.4441 155.403 20.1263 155.598 20.1177ZM212.921 9.31037C211.716 8.87388 214.647 10.0987 215.057 10.2722C214.53 10.006 213.354 9.45807 212.921 9.31037ZM258.641 16.2534C254.392 18.15 256.798 17.3256 257.541 16.9517C257.648 16.9018 258.746 16.207 258.641 16.2534ZM25.4032 11.4112C24.9182 11.7141 26.8183 10.743 27.0459 10.582C27.1778 10.4641 25.706 11.2012 25.4032 11.4112ZM317.74 20.3355C317.544 20.3126 317.35 20.2882 317.158 20.2625C317.302 20.2792 317.491 20.3034 317.74 20.3355ZM201.519 6.95127C204.382 7.25048 204.08 7.12729 204.332 7.12746C204.869 7.17251 206.104 7.38236 207.101 7.55295C205.954 7.37921 204.798 7.26952 203.642 7.2242C204.602 7.03762 212.309 8.91069 212.408 9.15366C212.658 9.16135 210.285 8.38777 210.21 8.38653C210.112 8.35023 209.779 8.08572 209.555 8.02138C209.221 7.74792 202.607 6.79474 201.519 6.95127ZM249.543 19.6512C250.278 19.506 250.5 19.5132 250.834 19.4115C250.947 19.3759 250.95 19.3121 251.337 19.1893C250.742 19.3588 250.145 19.5126 249.543 19.6512ZM196.438 7.61794C195.623 7.64767 199.22 7.17667 199.341 7.2282C199.959 7.21794 197.093 7.53141 196.438 7.61794ZM225.66 16.6955C225.507 16.6536 222.742 15.057 222.756 15.0774C223.423 15.6147 227.242 17.558 225.66 16.6955ZM251.816 19.0485C252.901 18.7596 254.915 18.072 254.651 18.065C254.649 18.0656 254.647 18.0662 254.646 18.0668C253.717 18.4333 252.773 18.761 251.816 19.0485ZM159.43 20.3452C157.374 20.0373 158.332 20.3357 160.171 20.4684C160.731 20.4201 159.768 20.3927 159.43 20.3452ZM152.898 19.2421C152.307 19.2025 146.725 17.1975 147.556 17.5451C147.829 17.7377 151.073 18.8198 151.234 18.8321C151.462 18.9044 150.385 18.6928 152.147 19.1742C152.052 19.1208 153.088 19.3009 152.898 19.2421ZM157.728 20.1094C155.702 19.7568 155.215 19.857 156.75 20.0898C157.35 20.1718 158.018 20.1557 157.728 20.1094ZM166.112 20.0276C165.376 20.1141 163.412 20.2658 162.053 20.3433C163.873 20.3211 165.692 20.1597 167.489 19.8605C167.69 19.7865 166.758 19.9651 166.107 20.0283C166.109 20.0281 166.111 20.0279 166.112 20.0276ZM565.503 20.2322C564.16 19.4847 567.328 21.0636 567.455 21.1443C567.83 21.3886 566.104 20.5663 565.503 20.2322ZM14.7427 16.7378C14.3865 16.9743 14.116 17.0787 13.3879 17.6742C14.1796 17.1546 14.9713 16.635 15.763 16.1154C16.2721 15.5695 15.1322 16.4795 14.7427 16.7378ZM11.5617 18.5111C11.6668 18.4286 10.9606 18.7021 12.4237 17.7783C13.4122 17.154 8.38918 21.0204 7.41871 21.633C8.40613 20.8425 10.6568 19.2202 11.5617 18.5111ZM2.14132 24.4516C2.07306 24.4824 3.98752 23.0216 4.21762 22.8639C5.42599 22.036 2.51013 24.2846 2.14132 24.4516ZM8.31759 19.8836C7.38936 20.528 9.37792 19.0097 9.98873 18.5816C10.0694 18.5687 8.46077 19.7837 8.31759 19.8836ZM552.955 10.5698C551.927 9.89417 550.817 9.66623 552.522 10.4621C552.603 10.5002 552.998 10.5994 552.955 10.5698ZM3.90387 22.8776C4.83209 22.2331 2.84354 23.7514 2.23273 24.1795C2.15451 24.1907 3.76268 22.9759 3.90387 22.8776ZM552.336 9.88685C550.934 9.06471 551.292 9.62126 551.467 9.72491C552.189 10.1498 554.803 11.3269 555.34 11.5622C551.492 9.66988 552.997 10.274 552.336 9.88685ZM545.568 6.68407C544.208 6.03565 547.61 7.83497 548.308 8.08354C547.638 7.74943 545.954 6.86833 545.568 6.68407ZM536.974 2.95832C536.178 2.69107 533.743 2.11277 533.318 2.1086C534.227 2.2417 536.624 2.89392 536.974 2.95832ZM535.171 2.32359C533.9 1.96338 533.55 2.10564 535.043 2.37043C535.101 2.38134 535.218 2.33854 535.171 2.32359ZM527.845 1.26214C526.98 1.14852 525.992 1.34727 527.391 1.37257C527.806 1.38469 527.937 1.27547 527.845 1.26214ZM550.687 8.64807C549.642 8.07926 548.211 7.5162 550.468 8.67699C549.662 8.29392 548.857 7.91085 548.052 7.52778C550.981 9.10202 550.854 8.81302 551.702 9.25167C552.886 9.8648 552.718 9.96476 552.455 9.89007C553.477 10.2938 557.623 12.3916 560.027 13.5876C557.941 12.4834 554.557 10.6874 552.492 9.61112C551.902 9.30373 551.306 9.05265 550.802 8.79196C549.995 8.37382 550.745 8.68032 550.691 8.65018C550.689 8.64948 550.688 8.64877 550.687 8.64807ZM518.157 2.14176C515.659 2.64869 517.269 2.43986 518.663 2.10726C518.723 2.0914 518.219 2.12936 518.157 2.14176ZM0.94374 24.3215C3.60553 22.4376 1.77479 23.9462 7.13506 19.7267C4.91245 21.5387 7.0601 19.8911 6.64129 20.2649C6.305 20.5644 4.93945 21.5453 5.76855 21.0224C4.68926 21.7237 0.236883 25.0809 0.0295577 25.2188C0.0314302 25.2174 0.0333027 25.216 0.0351752 25.2146C-0.0892783 25.2974 0.094422 24.9227 0.94374 24.3215ZM537.109 2.4459C536.348 1.97938 535.931 2.24967 534.333 1.69537C532.102 1.42461 540.347 3.19653 541.123 4.05462C532.622 0.81857 546.601 6.52844 540.855 3.80833C545.598 6.05686 542.448 4.46521 543.21 4.74996C543.368 4.81512 543.596 4.92037 543.86 5.04978C544.886 5.55232 546.489 6.38797 546.419 6.27007C546.418 6.26936 546.417 6.26866 546.415 6.26796C545.572 5.8449 544.729 5.42185 543.886 4.9988C543.142 4.62526 542.388 4.27693 541.624 3.95281C543.178 4.84201 539.803 3.29882 538.633 2.79293C538.126 2.6665 537.619 2.55136 537.109 2.4459ZM546.352 6.57479C546.25 6.5202 544.69 5.74301 543.741 5.28471C543.258 5.05097 542.923 4.90668 542.992 4.95378C543.085 5.00375 543.36 5.13879 543.722 5.32313C545.108 6.02924 547.869 7.39504 546.352 6.57479ZM561.158 14.0247C559.952 13.4134 558.104 12.4343 557.413 12.1679C558.619 12.7794 560.467 13.7586 561.158 14.0247ZM495.793 13.5461C494.346 14.3154 498.874 12.1069 497.535 12.691C497.477 12.7323 495.871 13.5212 495.793 13.5461ZM533.088 1.55455C531.283 1.18832 532.109 1.54629 533.457 1.72439C533.535 1.73496 533.172 1.5721 533.088 1.55455ZM3.04225 22.7167C3.10107 22.5996 6.91416 19.8007 7.58539 19.2984C7.23646 19.6272 2.97475 22.851 3.04225 22.7167ZM563.38 14.9044C561.075 13.5008 557.708 12.0683 557.353 11.8827C557 11.698 557.599 11.898 557.519 11.8548C557.337 11.7567 553.551 9.84794 553.365 9.76095C553.231 9.69906 553.857 10.1611 553.058 9.8021C554.614 10.5078 561.509 14.0509 561.874 14.2198C562.157 14.3504 560.123 13.1679 563.376 14.9023C563.377 14.903 563.379 14.9037 563.38 14.9044ZM556.473 11.4055C557.393 11.9324 554.74 10.5965 554.108 10.2539C552.703 9.49228 556.355 11.3384 556.473 11.4055ZM550.122 8.13317C549.825 7.96905 547.099 6.57607 546.839 6.51233C548.097 7.23693 550.796 8.50613 550.122 8.13317ZM516.111 2.22594C515.299 2.43754 513.101 3.13825 512.999 3.2477C513.778 2.9284 515.994 2.29791 516.111 2.22594ZM15.6923 12.6861C14.6078 13.4415 17.0483 11.5948 17.7761 11.0772C17.836 11.0764 15.7846 12.6218 15.6923 12.6861ZM532.864 1.00424C532.402 0.585694 522.158 0.342103 520.767 0.936439C522.142 0.417775 532.263 0.681967 532.691 1.04882C532.824 1.06456 532.927 1.01732 532.864 1.00424ZM552.683 9.02198C553.503 9.35051 553.974 9.69326 554.073 9.74449C555.039 10.2471 557.061 11.2518 556.586 11.0948C554.885 10.1997 551.049 8.36764 552.683 9.02198ZM515.319 2.08779C512.01 3.12032 518.415 1.31134 517.569 1.52121C517.51 1.51879 515.659 1.9697 515.319 2.08779ZM533.992 1.18661C534.616 1.15151 540.997 2.89066 544.066 4.6442C544.828 5.03382 545.417 5.33487 545.701 5.47869C545.11 5.23889 544.588 4.98623 544.036 4.70209C543.346 4.34843 542.603 3.96607 541.622 3.55317C541.13 3.34847 541.242 3.44931 541.189 3.42717C540.334 3.08495 540.995 3.28928 540.466 3.08097C540.182 2.77809 532.946 0.941434 533.992 1.18661ZM553.155 9.20103C553.655 9.40397 559.015 12.0972 559.225 12.2168C560.796 13.111 553.564 9.42546 553.155 9.20103ZM533.086 0.914569C534.216 0.89369 539.126 2.3131 535.734 1.48931C535.411 1.41185 534.048 1.04328 533.086 0.914569ZM515.639 1.86054C515.461 1.86389 512.016 3.01963 511.986 3.12086C512.451 2.85563 517.518 1.34506 515.639 1.86054ZM517.427 1.24382C517.342 1.26859 518.187 1.13759 516.531 1.54166C516.396 1.58639 516.101 1.51784 514.067 2.20945C513.655 2.35199 513.041 2.63805 513.089 2.62561C515.187 1.8643 521.729 0.284822 517.427 1.24382ZM553.287 9.18359C553.017 9.00259 553.765 9.25112 554.366 9.62131C554.623 9.78016 554.09 9.58835 553.287 9.18359ZM505.178 6.57989C506.281 5.83406 504.441 6.92277 502.961 8.03634C502.142 8.64427 501.401 9.20157 501.311 9.27715C501.398 9.23779 502.175 8.67794 502.994 8.08073C503.987 7.34954 505.086 6.64252 505.178 6.57989ZM17.8437 10.3984C17.8424 10.3993 17.8412 10.4002 17.8399 10.4012C19.1812 9.4185 18.3915 10.0821 18.4549 10.0369C18.8361 9.76619 19.1525 9.53914 19.4156 9.34815C21.3012 8.01594 20.6932 8.35904 21.1129 8.0503C22.1771 7.33071 22.0696 7.54735 23.9283 6.43847C20.8686 8.29241 23.6676 6.63181 23.7902 6.64414C24.1555 6.64498 21.233 8.05505 19.4388 9.37921C19.0221 9.67358 18.6571 9.93923 18.4003 10.1434C18.2201 10.2866 19.6253 9.32971 19.166 9.69961C17.6725 10.9021 12.6969 14.1691 17.8437 10.3984ZM554.854 9.8572C555.573 10.1441 560.762 12.8471 559.353 12.1969C559.126 12.0923 553.797 9.43465 554.854 9.8572ZM300.748 7.40914C302.082 8.15076 299.097 6.25468 298.47 6.03712C298.178 5.90045 300.177 7.06545 300.748 7.40914ZM277.007 2.19672C275.201 2.4531 273.391 3.11465 275.59 2.64218C275.821 2.58897 277.216 2.19855 277.007 2.19672ZM381.828 7.76658C380.27 6.68725 380.275 6.8994 381.46 7.62017C381.873 7.8802 381.877 7.80172 381.828 7.76658ZM318.005 15.0937C317.845 15.0813 316.022 14.7825 316.082 14.8208C316.746 14.9994 319.027 15.2669 318.005 15.0937ZM382.344 8.07618C381.437 7.5186 382.797 8.50955 383.922 9.25052C383.974 9.28347 384.026 9.31528 384.077 9.34569C384.032 9.31331 383.983 9.27738 383.931 9.23873C383.347 8.79632 382.436 8.13069 382.344 8.07618ZM529.295 0.0845764C528.361 0.0650606 525.723 -0.017251 524.212 0.103803C524.041 -0.0178571 528.215 -0.0429766 529.295 0.0845764ZM284.7 2.07493C282.987 2.00412 286.64 2.35379 286.312 2.26604C286.267 2.24849 284.769 2.06982 284.7 2.07493ZM431.105 3.77188C429.931 4.18962 433.734 3.10232 432.668 3.33019C432.613 3.33376 431.168 3.74015 431.105 3.77188ZM448.189 2.44893C447.263 2.21977 443.235 1.94917 444.798 2.10824C445.044 2.0983 448.114 2.45409 448.189 2.44893ZM21.1671 7.939C20.6805 8.12774 23.2053 6.57596 23.6035 6.41365C23.7435 6.32821 21.7707 7.65573 21.1671 7.939ZM370.576 2.96333C369.625 2.72265 367.121 2.28422 366.669 2.29694C367.867 2.39549 370.871 3.10997 370.576 2.96333ZM292.381 3.50609C290.982 2.95523 288.462 2.46272 289.058 2.7167C291.808 3.33148 288.765 2.4477 292.381 3.50609ZM387.06 11.1333C386.494 10.7987 386 10.6292 386.06 10.6743C386.641 11.1074 387.607 11.4988 387.06 11.1333ZM334.658 12.5945C334.608 12.5789 332.656 13.4003 332.927 13.3191C333.022 13.3097 334.708 12.6317 334.658 12.5945ZM499.508 10.2078C498.909 10.5563 499.991 9.83066 500.892 9.15417C501.293 8.85648 501.672 8.58281 501.903 8.4299C502.106 8.32693 501.567 8.74448 500.938 9.21577C500.312 9.68934 499.564 10.1751 499.508 10.2078ZM404.643 15.1503C404.737 15.1034 401.435 15.2295 402.738 15.267C403.066 15.2898 404.612 15.1876 404.643 15.1503ZM436.211 2.33757C434.916 2.62983 437.002 2.22773 439.077 2.0588C441.15 1.87373 443.201 1.90789 441.74 1.85333C441.527 1.76168 436.427 2.20293 436.211 2.33757ZM454.142 3.78505C453.709 3.63886 454.022 3.42284 455.766 4.19389C455.994 4.29384 454.88 3.94535 455.065 4.03343C455.196 4.0314 458.955 5.71354 459.102 5.84679C459.287 5.93418 459.111 5.74906 459.3 5.83607C459.519 5.91873 461.708 7.2187 462.793 7.9796C463.511 8.46203 463.995 8.80871 464.34 9.05295C464.889 9.43519 465.019 9.48301 465.11 9.54821C465.516 9.83306 466.181 10.3456 467.052 10.8617C471.362 13.6823 479.142 15.3439 483.198 15.1967C479.599 15.204 476.156 14.7341 472.75 13.6058C473.761 13.8915 467.814 11.7517 471.292 13.0093C470.562 12.7493 467.259 11.3841 464.284 9.12879C460.136 5.93296 454.902 4.0244 454.147 3.78668C454.145 3.78614 454.143 3.7856 454.142 3.78505ZM270.01 3.78006C271.02 3.26541 265.658 5.38626 265.322 5.80686C265.974 5.41381 269.86 3.78268 270.01 3.78006ZM296.006 4.38462C296.497 4.59218 297.079 4.55862 299.535 5.96089C299.537 5.96212 299.539 5.96336 299.542 5.96459C300.252 6.38585 299.408 5.96858 299.533 6.05533C299.588 6.07626 301.755 7.44132 299.909 6.38692C297.041 4.87369 299.711 6.11162 298.168 5.31867C297.993 5.19039 294.939 3.98288 295.1 4.10048C295.118 4.1068 296.041 4.45479 296.187 4.52953C296.738 4.80047 296.441 4.73379 296.52 4.77012C296.813 4.80893 301.434 7.144 301.97 7.71018C302.266 7.67552 294.701 3.86131 294.299 3.9604C294.105 3.88189 294.239 3.76847 294.039 3.68235C293.948 3.60254 290.653 2.68136 290.215 2.60935C290.09 2.57627 289.995 2.55037 289.925 2.5311C290.423 2.66776 287.391 2.07111 287.487 2.06219C287.546 2.03511 289.641 2.43447 289.711 2.46894C289.743 2.47755 289.771 2.48584 289.797 2.49309C289.417 2.19447 296.31 4.36757 294.845 3.84082C296.817 4.56101 294.526 3.83794 296.006 4.38462ZM304.598 9.27361C304.444 9.18402 304.291 9.09283 304.138 9.00004C306.58 10.7604 309.645 12.4886 312.971 13.5215C313.815 13.7778 312.87 13.3984 313.971 13.743C314.854 14.0134 315.839 14.3117 315.342 14.2238C315.217 14.2119 313.401 13.6948 312.509 13.3864C309.877 12.4746 310.523 12.7389 310.366 12.697C310.194 12.6387 308.61 11.8709 307.77 11.4079C306.206 10.5633 305.285 10.0103 303.872 8.9561C303.265 8.49794 302.568 7.99091 301.695 7.41016C303.351 8.44587 302.895 8.03545 303.978 8.81448C304.137 8.93225 304.338 9.08218 304.598 9.27361ZM417.74 10.7879C417.818 10.6963 419.519 9.67748 420.086 9.23356C420.033 9.35431 418.367 10.4309 417.74 10.7879ZM113.861 2.3639C113.147 2.52264 118.595 1.72298 117.151 1.86946C116.828 1.87273 114.537 2.20215 113.861 2.3639ZM137.966 5.61266C138.644 5.91195 135.991 4.55838 135.958 4.6476C135.959 4.65591 137.886 5.55831 137.966 5.61266ZM341.073 8.22096C341.177 8.12776 342.889 7.03046 342.953 7.01179C344.1 6.31648 338.565 10.0454 341.073 8.22096ZM161.683 14.8798C160.624 14.9014 161.689 14.9486 162.776 14.9063C163.864 14.8665 164.964 14.731 163.99 14.7867C163.894 14.8092 161.786 14.8946 161.683 14.8798ZM170.404 13.5243C169.927 13.7 167.732 14.2091 167.705 14.2229C167.673 14.298 170.19 13.6973 170.404 13.5243ZM387.606 11.068C387.429 10.8855 390.028 12.3205 391.01 12.6556C391.191 12.8602 388.493 11.5994 387.606 11.068ZM367.87 1.90977C375.431 3.21421 377.964 5.15338 377.493 4.82704C376.992 4.6882 373.326 2.74041 366.963 1.82749C366.952 1.76535 366.915 1.77043 367.87 1.90977ZM385.33 9.59119C385.111 9.48248 384.682 9.1983 384.219 8.85352C383.723 8.48394 383.181 8.09486 382.726 7.78634C382.843 7.83414 383.549 8.30466 384.242 8.82244C384.659 9.13281 385.085 9.43062 385.33 9.59119ZM107.526 4.14832C108.365 3.64696 112.471 2.51793 111.758 2.78089C111.568 2.76435 107.196 4.26411 107.526 4.14832ZM342.086 7.43638C341.703 7.50358 345.699 5.21956 346.06 5.15048C347.347 4.55948 342.332 7.12108 342.086 7.43638ZM404.731 14.7015C405.387 14.5866 407.256 14.3946 408.439 14.1344C407.917 14.3267 405.758 14.643 404.731 14.7015ZM396.052 14.0846C396.124 14.1089 397.781 14.4148 397.857 14.4179C399.208 14.7337 394.514 13.8557 396.052 14.0846ZM15.571 11.2079C15.6196 11.1685 16.761 10.3213 16.8024 10.2939C17.8613 9.59126 14.4353 12.1339 15.571 11.2079Z" fill="var(--stroke-0, #B9DD5D)"/>
</svg>
