<svg preserveAspectRatio="none" width="100%" height="100%" overflow="visible" style="display: block;" viewBox="0 0 575 30" fill="none" xmlns="http://www.w3.org/2000/svg">
<g id="Frame 2147251236" clip-path="url(#clip0_0_104)">
<path id="Vector 1" d="M68.3504 8.45611C68.921 8.46542 71.1971 8.73197 72.1705 8.92102C71.0594 8.72982 66.3021 8.35661 68.3504 8.45611ZM174.309 5.89688C173.377 6.07642 172.449 6.2747 171.525 6.49168C174.162 5.93855 177.752 5.41573 180.247 5.25185C180.655 5.22294 179.604 5.37432 180.568 5.30083C181.532 5.23519 181.339 5.1496 182.745 5.06989C184.322 4.89383 191.556 5.12796 194.033 5.52311C202.087 6.4519 210.051 8.78417 217.322 12.4483C218.34 12.9604 219.368 13.445 220.407 13.9032C218.724 13.1823 217.769 12.7128 217.299 12.4952C216.732 12.2295 216.822 12.2891 217.281 12.5308C218.292 13.095 221.398 14.5027 222.703 14.9662C223.247 15.0557 223.081 15.335 231.597 17.559C237.082 18.6306 231.916 18.2554 241.233 19.1501C234.096 18.2141 241.114 19.2757 246.748 19.142C247.72 19.2308 255.552 18.6635 258.921 17.7969C260.08 17.5531 261.814 17.0444 263.318 16.6057C264.354 16.3029 265.152 16.1151 266.667 15.5899C269.267 14.6808 271.792 13.6092 274.236 12.3833C278.869 10.0601 283.751 8.25526 288.832 7.00933C284.205 8.42659 292.533 6.18 292.943 6.23336C294.873 5.86126 286.188 7.79262 289.628 7.05185C294.411 5.91666 299.314 5.28802 304.23 5.17892C300.188 5.22876 309.582 4.8883 311.302 5.27033C310.921 5.14944 316.564 5.5267 322.521 7.0988C328.507 8.57396 334.602 11.3774 336.182 12.1438C336.661 12.366 334.592 11.2958 337.081 12.4994C337.971 12.9332 339.494 13.7045 342.153 14.7789C343.175 15.184 342.766 15.0891 343.307 15.2878C343.632 15.4066 345.653 15.9496 347.755 16.6695C348.554 16.8192 343.398 15.9884 354.573 18.3756C352.358 17.8332 356.232 18.7171 361.214 19.0611C366.197 19.4737 372.229 18.9729 374.082 18.7053C373.336 18.7789 372.589 18.8392 371.842 18.8863C375.532 18.5609 376.173 18.298 376.995 18.1711C380.309 17.6126 384.795 16.4304 387.723 15.3061C390.851 14.0929 391.084 13.8759 394.056 12.4554C394.36 12.3052 394.691 12.1454 395.054 11.9751C394.718 12.127 394.382 12.2816 394.048 12.4391C393.432 12.7274 392.813 13.0047 392.19 13.2722C392.806 12.9895 393.417 12.6973 394.025 12.3943C396.269 11.2759 398.573 10.2777 400.923 9.40574C393.986 12.3528 402.415 8.764 403.026 8.66302C403.937 8.35385 402.644 8.84779 404.173 8.34207C404.333 8.29733 404.074 8.27807 406.458 7.58201C411.471 6.24197 410.715 6.60524 412.846 6.16819C413.045 6.14798 412.334 6.14549 416.056 5.58645C427.956 4.40574 415.987 5.51564 415.55 5.70858C414.973 5.89485 418.983 5.15318 409.053 7.11892C412.372 6.37371 412.74 6.48153 413.114 6.40228C413.438 6.28365 419.267 5.5021 419.597 5.53227C422.478 5.28152 419.935 5.39584 420.497 5.34191C420.956 5.21478 428.047 5.17208 429.722 5.16138C433.1 5.64404 427.76 4.99573 422.072 5.32628C421.245 5.35679 427.487 5.2817 427.813 5.36321C435.847 5.85038 431.412 5.45064 433.18 5.48043C434.111 5.51386 437.358 6.09295 434.364 5.53101C441.626 6.62549 437.205 6.05051 437.676 6.1175C438.378 6.24658 440.9 6.72878 441.21 6.8177C441.667 6.93254 440.06 6.61005 441.865 7.05095C442.163 7.12347 445.095 7.76443 441.351 6.7995C446.361 8.0535 445.944 7.98626 447.571 8.64203C451.028 9.53407 449.942 9.6636 451.241 10.1735C454.658 11.6199 453.738 11.0378 453.927 11.0942C454.313 11.2428 455.451 11.7406 456.886 12.458C459.832 13.9889 464.522 15.7719 466.074 16.2012C465.126 16.1564 459.115 13.6491 457.833 12.9647C457.317 12.7301 457.007 12.586 456.855 12.5203C456.679 12.4434 456.695 12.4605 456.843 12.5433C457.642 13.0828 463.276 15.4727 460.744 14.5789C462.131 15.0983 463.536 15.5691 464.954 15.9899C467.504 16.9045 463.761 16.003 470.84 17.8118C472.016 18.0246 465.842 16.5131 467.102 16.7453C467.827 16.949 471.934 17.9532 472.028 17.9129C472.11 17.924 468.392 17.0525 468.992 17.139C470.228 17.6604 483.986 19.7832 473.502 18.2203C476.409 18.7505 477.904 19.1472 480.475 19.2934C482.13 19.2709 472.851 18.7113 486.806 19.1759C487.106 19.3302 481.217 19.1542 481.068 19.0852C480.852 19.0832 481.902 19.3817 482.088 19.4001C482.746 19.8425 497.069 18.8544 499.979 17.821C498.837 18.1743 510.365 14.7393 511.442 13.8806C511.756 13.7296 510.533 14.1809 510.87 14.0225C511.57 13.6984 512.673 13.205 513.912 12.5992C516.633 11.2458 520.165 9.88783 522.183 9.20256C525.569 8.06125 525.136 8.18907 525.323 8.11762C526.836 7.68121 525.641 8.07605 526.566 7.81415C527.924 7.23632 537.762 5.50881 538.283 5.61813C538.429 5.60123 536.797 5.68068 538.964 5.45372C539.342 5.46888 539.101 5.3485 545.547 5.22289C553.317 5.30633 540.15 5.08883 543.375 5.02829C548.378 5.10467 548.214 5.08883 549.57 5.14819C550.039 5.17956 553.522 5.51205 557.257 6.16739C554.573 5.72055 551.864 5.43055 549.148 5.29895C551.82 5.41855 556.973 6.09042 559.119 6.59603C560.167 6.82945 559.286 6.72171 561.556 7.24466C562.028 7.39309 564.028 7.48241 558.014 6.35554C557.55 6.17555 560.399 6.77739 561.713 7.08927C561.911 7.13593 562.736 7.17409 564.374 7.7275C564.729 7.97779 560.439 6.64736 571.451 10.2972C571.802 10.4269 570.614 9.89618 570.958 10.0215C571.198 10.0915 573.923 11.2677 574.218 11.4115C574.528 11.5412 573.243 10.9029 573.612 11.0557C575.511 11.839 577.824 13.215 574.018 11.4034C574.876 11.8112 575.72 12.2338 576.561 12.6758C576.934 12.8729 577.308 13.0661 577.684 13.2555C576.518 12.5068 579.518 14.0972 581.182 14.7376C591.922 18.5354 584.772 15.8577 586.635 16.4537C589.681 17.221 587.273 16.9388 591.844 17.9154C592.284 17.9069 586.723 16.9871 597.583 18.8059C595.968 18.6176 594.359 18.3673 592.763 18.0558C593.644 18.4537 598.568 18.9671 598.947 18.9551C603.26 19.2387 600.342 19.2706 606.761 19.1889C607.334 19.168 608.585 19.1635 609.806 19.0515C614.867 18.622 603.109 19.3903 602.787 19.0604C602.64 19.3097 615.273 18.5819 615.672 18.2174C617.513 18.0409 609.993 19.0302 611.432 18.9005C612.057 19.4554 629.672 15.1591 632.715 12.9284C633.039 12.7763 633.348 12.6298 633.641 12.4892C637.096 10.8453 638.798 10.4237 638.73 10.1859C640.026 9.927 641.04 9.37802 641.598 9.18196C648.368 6.98232 648.419 7.05253 654.42 5.95397C655.753 5.74373 656.893 5.68838 657.365 5.62373C657.64 5.5878 657.114 5.55598 658.466 5.39778C660.339 4.93393 671.712 5.22499 672.527 5.58353C673.364 5.67706 667.752 5.20869 668.754 5.37308C672.82 5.60038 676.706 6.12526 680.702 7.04783C682.358 7.44243 681.494 7.29172 682.208 7.46902C682.528 7.48625 688.163 9.16075 687.918 9.11261C687.657 8.98462 683.204 7.47786 679.26 6.68911C675.326 5.86068 671.984 5.55017 674.369 5.78392C675.293 5.86756 678.486 6.55174 678 6.32578C684.385 7.53943 690.596 9.64842 696.398 12.5706C704.327 16.5708 713.101 18.8819 721.979 19.3076C713.569 19.072 704.231 16.6311 696.362 12.6417C696.256 12.5886 696.149 12.5357 696.043 12.4833C694.861 11.8509 690.696 10.0705 691.171 10.3655C692.848 11.0458 694.584 11.8242 696.333 12.7006C702.059 15.6108 708.822 17.6824 714.443 18.6189C714.673 18.6587 713.817 18.5825 714.678 18.7355C716.283 19.0803 721.595 19.451 722.488 19.457C722.641 19.4846 719.613 19.3886 720.528 19.4988C722.885 19.7844 723.5 19.4813 725.527 19.4813C727.103 19.691 737.647 18.6699 740.143 17.7072C742.856 17.0517 732.515 19.2206 733.247 18.8574C740.317 17.8588 747.319 15.7448 753.355 12.7143C753.449 12.6675 752.716 12.9753 753.471 12.5798C753.58 12.5224 753.718 12.4516 753.891 12.3655C756.471 11.0964 757.218 10.914 758.513 10.3906C759.895 9.78237 764.95 8.08163 765.659 7.966C765.747 7.94381 764.736 8.33305 764.582 8.38489C762.377 9.10099 761.573 9.29257 761.37 9.35678C760.621 9.61905 759.909 9.93567 759.234 10.1987C758.128 10.6344 757.501 10.8442 756.065 11.4833C755.076 11.932 756.06 11.5669 755.112 12.004C754.976 12.0673 754.309 12.3497 753.536 12.711C752.438 13.2254 751.078 13.8153 750.926 14.0052C750.91 14.0211 751.934 13.5982 753.576 12.7906C760.888 7.96969 783.563 4.60376 786.321 5.47122C783.425 5.38651 780.523 5.48239 777.636 5.75858C783.499 5.11599 790.597 5.49467 791.068 5.7943C799.731 6.5768 808.241 9.00501 816.012 12.9101C826.781 18.3367 839.104 20.6175 851.107 19.4107C854.662 18.9865 852.762 19.5256 858.548 18.3433C857.049 18.6275 855.539 18.8581 854.026 19.0343C857.105 19.0081 869.959 15.0716 871.784 13.7899C871.966 13.6995 872.177 13.5391 873.406 12.8819C873.918 12.6077 874.595 12.2614 875.509 11.8377C878.448 10.5049 878.985 10.4428 880.6 9.84958C881.962 9.3609 883.5 8.84127 883.913 8.72074C884.229 8.62768 884.369 8.64317 885.132 8.42977C887.547 7.78576 885.549 8.15126 887.999 7.71731C887.415 7.86858 886.831 8.02781 886.252 8.19409C889.165 7.41094 893.219 6.72214 888.896 7.68608C888.157 7.86795 888.78 7.66137 888.228 7.79416C867.138 14.8352 883.772 8.51678 891.472 7.12084C893.421 6.57301 904.603 5.68798 904.984 5.91592C905.501 5.94584 903.586 5.99009 906.095 6.08085C906.656 5.71915 921.471 7.78956 916.126 7.10935C915.041 6.85294 907.915 6.09391 906.181 6.16224C910.25 6.23621 919.685 7.57701 920.704 7.97356C924.9 8.98677 912.589 6.27351 922.051 8.49245C929.224 10.58 922.529 8.48685 925.298 9.26525C926.906 9.58551 934.674 12.9741 934.494 12.8195C934.993 13.055 935.339 13.2278 935.576 13.3496C936.552 13.8531 935.605 13.4463 935.855 13.5771C936.156 13.7345 941.128 16.168 942.719 17.0049C942.912 17.1066 942.258 16.8785 942.457 16.9859C942.843 17.1933 947.624 19.5685 947.819 19.6578C947.944 19.7143 946.841 19.0748 947.317 19.2924C947.872 19.546 952.457 21.8631 952.72 21.9701C953.093 22.1193 947.412 19.2987 948.396 19.6944C951 21.0232 955.285 23.1045 957.041 23.9062C956.609 23.7122 954.074 22.4454 953.197 21.9984C953.668 22.0922 959.109 24.8194 957.204 23.9776C958.41 24.5215 957.616 24.0915 958.305 24.3795C958.485 24.4554 960.167 25.2946 960.5 25.4372C960.544 25.4543 958.832 24.543 959.191 24.6938C959.84 24.9669 964.93 27.528 965.341 27.7478C966.499 28.3664 962.327 26.3235 961.956 26.198C961.903 26.1807 965.389 28.0441 965.438 28.0792C965.6 28.2718 961.701 26.2386 962.111 26.5439C963.074 27.0478 964.038 27.5516 965.002 28.0555C961.211 26.2584 954.295 22.7419 952.46 21.9382C958.033 24.6955 963.85 27.6131 963.733 27.8151C963.686 27.9007 961.261 26.7506 961.343 26.8193C961.657 27.0762 965.03 28.6575 965.15 28.723C965.249 28.7786 965.293 28.8064 965.291 28.811C965.291 28.811 965.291 28.811 965.291 28.811C965.267 28.8576 960.504 26.5138 960.256 26.4161C959.837 26.2539 961.872 27.4678 961.851 27.5007C961.774 27.4707 958.376 25.8145 959.486 26.4459C960.61 27.0847 963.567 28.5679 963.668 28.6261C964.215 28.9455 959.023 26.3865 958.858 26.3307C958.771 26.3008 961.517 27.7594 961.588 27.8191C961.648 27.873 959.515 26.8571 958.652 26.5008C958.009 26.2351 959.799 27.1748 959.477 27.0227C959.248 26.9136 954.359 24.4637 954.115 24.3512C953.751 24.1836 954.869 24.8111 954.695 24.7411C954.449 24.642 952.88 23.8317 953.076 23.9545C953.223 24.0468 959.251 27.2986 959.186 27.3284C959.074 27.378 952.689 23.9363 958.554 27.2916C958.595 27.3149 960.075 28.0266 960.115 28.0491C960.99 28.5644 956.236 26.3013 961.999 29.1676C951.24 23.9116 960.603 28.6275 958.948 27.9765C958.309 27.7249 954.147 25.6685 954.124 25.6671C954.492 25.9386 955.842 26.547 956.274 26.8063C956.512 26.9493 952.762 25.1627 953.574 25.629C953.993 25.87 957.94 27.8357 958.1 27.922C959.637 28.7486 957.7 27.8391 958.026 28.0429C958.243 28.1785 960.621 29.3716 960.681 29.4065C960.777 29.4648 957.504 27.934 956.816 27.6276C956.292 27.395 958.194 28.3934 957.832 28.225C955.651 27.2093 951.155 24.7614 955.453 27.1887C955.715 27.337 957.386 28.1668 957.433 28.194C958.433 28.7724 955.36 27.2399 954.785 27.0157C953.798 26.6311 958.235 28.7925 954.535 27.016C957.259 28.4523 958.794 29.2182 962.023 30.8158C953.082 26.3927 949.82 25.0428 959.725 29.9973C956.577 28.4159 956.862 28.719 955.922 28.2506C955.337 27.9592 950.833 25.544 952.784 26.8787C953.029 27.046 955.826 28.3904 954.92 28.0282C948.271 24.6741 954.756 28.004 954.758 28.017C954.587 28.1422 938.385 19.8541 935.58 18.4729C934.869 18.1229 934.173 17.7868 933.511 17.4715C931.224 16.3814 929.307 15.7024 928.758 15.4796C926.433 14.5632 928.391 15.2513 927.881 15.0214C927.392 14.6954 920.559 12.6998 920.195 12.6999C918.865 12.3423 920.244 12.586 920.106 12.5484C918.496 11.907 909.004 10.567 906.312 10.677C906.397 10.6925 911.752 11.0518 908.403 10.922C904.508 10.8411 904.284 10.6848 904.181 10.6534C894.334 10.7124 884.513 13.0695 875.713 17.4881C867.984 21.3657 859.52 23.773 850.907 24.5433C851.196 24.9273 863.551 22.5302 863.764 22.202C864.586 22.0033 859.907 23.5113 854.521 24.2614C849.143 25.0918 843.151 24.9737 841.856 24.8689C843.833 24.9798 845.816 25.0061 847.798 24.9474C844.419 25.3389 836.904 24.8014 832.092 23.8815C830.532 23.6135 833.51 24.2259 833.451 24.2065C831.68 23.9906 828.897 23.3305 831.003 23.6908C826.743 22.8451 827.382 22.8789 824.188 21.9398C824.025 21.8842 825.37 22.3871 822.848 21.6038C821.64 21.3066 815.529 18.8173 814.739 18.4123C814.392 18.2887 817.345 19.907 817.819 19.8538C824.478 22.5593 819.988 20.6104 822.609 21.5598C823.03 21.6394 821.987 21.6969 828.812 23.3886C827.424 23.4093 819.732 20.7995 818.483 20.1832C815.758 19.2607 826.828 23.4685 829.061 23.5246C828.039 23.446 829.865 23.7765 832.454 24.2477C835.294 24.7327 834.048 24.5713 835.593 24.792C839.833 25.2805 838.082 24.9881 841.584 25.31C838.178 24.8545 847.594 25.5176 850.355 25.1946C845.888 25.5732 841.383 25.5204 836.922 25.0364C837.175 25.0819 837.428 25.1261 837.682 25.169C836.505 25.0476 835.332 24.8965 834.164 24.7157C834.354 24.7281 834.543 24.7397 834.733 24.7505C828.69 23.9135 827.313 23.208 826.827 23.1236C822.466 21.9673 817.752 20.2154 813.44 18.0445C811.791 17.2177 810.133 16.4779 808.515 15.832C807.672 15.5574 808.284 15.6407 802.124 13.6876C800.141 13.1233 802.046 13.5325 799.773 12.9745C796.872 12.5349 796.957 12.4186 796.101 12.2513C793.642 11.8146 792.114 11.7267 791.886 11.697C788.824 11.3384 784.3 11.1897 780.921 11.4326C780.858 11.4371 782.619 11.4016 780.425 11.5146C779.669 11.5232 772.67 11.838 766.864 13.7267C768.385 13.3028 769.92 12.9358 771.467 12.6259C769.539 12.6407 757.36 17.2 760.386 16.2048C762.178 15.4565 766.636 13.7965 767.2 13.8651C765.55 14.3067 760.952 15.7354 756.247 18.1229C748.444 22.2262 738.563 24.2971 737.359 24.4163C737.082 24.4639 738.77 24.0841 738.387 24.1483C738.102 24.2611 732.193 25.1596 731.393 25.1421C730.922 25.1805 733.543 24.8692 733.326 24.8635C733.145 24.9658 725.71 25.4259 725.281 25.4029C727.113 25.4163 732.248 25.0528 729.559 25.3094C729.214 25.3463 727.413 25.3861 726.992 25.402C723.079 25.6786 734.783 25.0965 736.545 24.5316C729.317 26.0098 717.77 25.8138 709.46 23.8153C706.112 23.0098 714.473 24.7775 710.672 23.9296C702.845 21.9608 708.556 23.5317 708.31 23.4903C706.308 23.1669 699.943 20.6572 699.876 20.831C697.173 19.7026 698.04 20.0862 694.287 18.3573C694.768 18.6119 695.251 18.8601 695.738 19.1037C695.108 18.8384 694.386 18.5065 693.616 18.1228C689.638 16.0403 683.654 13.8359 684.193 14.0064C685.95 14.4235 690.229 16.2408 690.578 16.4289C690.925 16.5833 691.729 16.7845 693.784 17.7883C694.988 18.3806 696.601 19.1807 698.842 20.1765C700.623 20.7793 695.646 18.7519 693.813 17.7307C693.061 17.3428 692.826 17.2094 693.839 17.6787C694.049 17.7777 694.309 17.9001 694.626 18.0466C694.404 17.9399 694.142 17.8121 693.846 17.6643C689.56 14.9821 675.428 11.1556 673.158 11.3397C672.878 11.3322 674.155 11.5886 670.173 11.1259C668.278 10.9255 672.854 11.3223 671.989 11.2135C670.11 10.2758 647.95 10.5627 636.204 17.6052C632.138 19.6516 628.682 20.8696 626.975 21.4381C626.515 21.59 626.667 21.484 626.213 21.6303C624.836 22.1221 619.688 23.5608 617.087 23.9307C622.453 23.0477 612.063 24.9965 609.35 24.9344C605.276 25.1161 605.526 24.9432 603.769 24.9167C596.983 24.893 586.559 22.9289 581.719 20.7855C581.86 20.9895 577.786 19.4456 574.144 17.5008C572.576 16.6731 571.008 15.9453 569.845 15.4672C566.966 14.2519 562.605 13.06 566.565 14.4523C561.509 12.652 555.933 11.5301 550.923 11.1143C550.094 11.0471 551.241 11.0757 549.825 10.9727C549.696 10.9665 549.515 11.0049 548.299 10.95C538.253 10.8919 543.138 10.9162 541.255 10.889C540.202 10.9338 539.425 10.9951 538.857 11.048C544.705 10.3727 551.499 10.9246 553.285 11.1941C551.784 10.6203 540.263 10.5257 536.946 11.2195C536.83 11.2331 537.223 11.1086 537.106 11.1231C537.103 11.1235 537.101 11.1238 537.099 11.1241C535.821 11.141 527.979 12.8888 529.621 12.6401C530.054 12.5591 533.64 11.6319 537.992 11.1418C536.818 11.2966 537.706 11.2745 537.499 11.3025C534.98 11.5672 528.893 12.7879 526.798 13.4844C526.316 13.627 526.366 13.6682 526.288 13.6923C524.378 14.2884 525.107 13.8839 523.222 14.7155C519.73 15.7179 529.656 12.5337 528.963 12.7677C528.659 12.7702 521.937 14.5572 516.355 17.477C511.247 20.0958 506.211 21.6581 506.269 21.7165C506.182 21.727 505.85 21.8137 505.171 21.9935C503.688 22.4845 496.923 23.9819 495.727 24.0986C495.529 24.1339 495.63 24.2639 495.382 24.3016C494.772 24.5066 486.306 25.1414 483.133 24.9676C484.842 25.0427 486.556 25.0545 488.268 25.003C477.927 25.0994 479.525 24.7981 482.967 25.1092C483.14 25.1155 483.308 25.1261 483.472 25.1311C486.146 25.2582 489.578 25.0996 489.63 25.0996C489.732 25.1203 485.381 25.4123 481.432 25.1525C477.482 24.9349 473.98 24.2892 475.662 24.4851C476.119 24.6421 484.224 25.3025 480.216 24.9199C479.51 24.9037 474.327 24.2884 474.065 24.1868C472.251 23.9835 483.57 25.1187 482.196 24.7776C479.437 24.7549 475.913 24.3305 472.801 23.7715C471.384 23.5175 471.026 23.5027 470.851 23.4693C468.253 22.9082 469.726 23.158 468.863 22.9573C468.389 22.8962 463.321 21.5623 464.34 21.6229C448.278 15.3752 459.55 20.8866 469.901 23.2961C466.598 22.7059 460.367 20.5768 457.687 19.3503C456.718 18.9293 457.255 19.2621 455.628 18.5216C455.277 18.3592 454.789 18.1273 454.195 17.8306C449.681 15.1388 436.732 11.4946 432.911 11.3908C435.486 11.695 434.748 11.5088 432.757 11.2715C430.762 11.0646 432.426 11.3481 432.036 11.3185C431.631 11.1261 422.235 10.816 420.679 11.1364C427.741 10.7959 426.151 10.7062 420.144 11.0509C421.009 10.9559 421.876 10.8785 422.744 10.8186C419.21 10.8787 411.851 11.9873 409.898 12.6162C409.588 12.6979 410.721 12.4901 410.547 12.5367C408.792 12.8964 402.984 14.727 402.747 14.9083C402.527 15.0012 404.988 14.1788 404.09 14.5285C403.902 14.5988 401.511 15.3475 399.271 16.3811C398.441 16.7637 398.969 16.5961 398.761 16.6943C397.503 17.3021 397.684 17.1627 396.656 17.6454C396.244 17.8415 395.653 18.1308 394.726 18.566C392.213 19.7232 390.343 20.6311 386.684 21.7849C398.527 17.5127 388.705 21.4868 383.591 22.8156C382.769 23.0086 383.529 23.0713 378.566 24.0313C389.003 21.4739 375.587 24.7698 372.727 24.7713C372.572 24.7841 372.513 24.7247 371.135 24.8387C371.018 24.8461 371.191 24.8931 369.908 24.9818C357.72 25.2723 365.513 25.029 363.2 25.0041C362.214 25.013 356.302 24.5655 354.732 24.2464C354.369 24.1865 354.542 24.171 353.145 23.9248C350.673 23.4804 348.473 22.9916 346.874 22.5485C346.691 22.4847 346.69 22.4564 343.691 21.5165C342.851 21.2455 341.905 20.9409 343.083 21.3769C346.977 22.8995 354.757 24.4793 359.452 24.8681C363.715 25.4379 350.25 23.8475 349.617 23.3642C349.364 23.3085 351.954 23.8589 349.336 23.246C347.104 22.724 343.024 21.6728 339.855 20.353C339.608 20.2674 337.139 19.0811 337.263 19.116C337.357 19.1862 341.254 20.7418 340.706 20.4692C340.635 20.4503 338.166 19.4494 337.863 19.2735C337.485 19.0758 336.57 18.3138 336.066 18.0638C334.766 17.4189 335.586 17.8947 334.744 17.4751C334.705 17.4553 334.663 17.4343 334.62 17.4123C332.845 16.4054 327.046 14.0274 326.791 14.1216C327.81 14.4807 328.817 14.8645 329.815 15.2738C324.199 13.1606 326.56 14.159 325.759 13.8781C324.879 13.622 325.162 13.5883 323.22 13.0171C322.829 12.7599 314.527 11.0921 314.654 11.2772C319.286 11.9388 317.544 11.828 317.759 11.8486C318.562 12.0092 319.6 12.1562 320.67 12.4134C328.135 14.42 320.585 12.4784 322.338 12.9844C322.941 13.1516 324.158 13.4467 324.411 13.5293C325.235 13.7921 325.225 13.8705 325.775 14.0431C327.054 14.4549 325.6 13.8565 325.701 13.8862C326.882 14.1562 331.249 15.9562 328.469 15.0018C330.096 15.6732 330.338 15.6288 331.597 16.2347C334.082 17.4749 330.309 15.7283 329.244 15.3639C325.443 14.0174 324.339 13.5013 318.762 12.2674C316.748 11.8454 314.326 11.5682 313.38 11.4647C312.796 11.3298 307.137 10.7236 306.961 11.1517C304.767 11.0534 301.296 10.9486 299.032 11.2141C297.003 11.4498 297.667 11.5184 297.478 11.543C297.189 11.5773 294.75 11.9325 293.937 12.1172C292.983 12.3236 293.467 12.2703 291.959 12.6127C288.222 13.5286 288.307 13.4607 287.918 13.5424C283.488 14.794 285.483 14.4106 284.518 14.7379C284.06 14.9019 280.503 16.1377 277 17.9019C273.411 19.7138 269.491 21.1421 268.095 21.6248C269.26 21.2026 270.413 20.75 271.553 20.2666C269.469 21.0163 267.28 21.8667 267.193 21.7353C266.85 22.1382 262.401 23.2406 261.056 23.504C260.528 23.6238 260.579 23.6561 259.916 23.7968C257.335 24.4139 251.397 25.0678 249.961 25.1134C243.761 25.657 259.642 24.5635 260.816 23.8548C258.418 24.7684 244.224 25.8139 250.755 25.4802C251.768 25.4327 253.54 25.143 254.102 25.0665C257.906 24.5335 254.925 25.0321 255.224 25.0024C255.737 24.9599 258.22 24.4651 258.874 24.339C259.092 24.2887 257.709 24.6969 261.296 23.9297C259.588 24.6162 249.322 25.8018 247.958 25.6678C247.478 25.613 250.497 26.0408 241.67 25.5922C241.772 25.6151 241.873 25.6378 241.974 25.6603C237.061 25.3998 232.174 24.6205 227.421 23.3381C227.947 23.4437 230.639 24.0548 227.272 23.193C225.343 22.6602 226.744 23.1456 226.568 23.099C225.88 22.9037 220.456 21.436 214.361 18.3602C206.211 13.9872 194.568 11.9503 191.244 11.8516C189.351 11.6287 184.054 11.6774 183.654 11.7411C181.229 11.6715 172.755 12.8621 171.127 13.4151C170.095 13.6735 171.094 13.5012 170.172 13.7295C169.316 13.948 170.184 13.6499 169.929 13.713C168.678 13.9889 162.59 15.7645 157.473 18.4153C153.553 20.4036 149.683 21.7857 147.991 22.3061C149.422 21.8743 153.976 20.1564 157.431 18.3304C159.86 17.0699 161.919 16.2196 161.811 16.2359C161.755 16.2353 159.057 17.3482 158.533 17.6475C158.278 17.7501 157.866 17.9502 157.371 18.2105C155.944 18.9661 153.814 20.024 152.427 20.551C152.207 20.6204 153.032 20.2432 149.613 21.4912C148.435 21.914 145.338 23.0417 142.095 23.7014C139.791 24.3133 132.383 25.7213 125.268 25.5551C118.152 25.5188 111.551 24.0439 110.709 23.9021C110.653 23.9124 114.12 24.6505 111.763 24.2219C108.641 23.5893 111.465 24.0565 107.878 23.1314C107.283 23.1649 97.5729 19.6997 97.3274 19.4022C94.4092 18.2656 102.687 21.8613 102.613 21.7108C102.271 21.73 95.3379 18.8347 95.1092 18.6042C94.8596 18.4906 99.9325 20.7329 94.6341 18.2463C94.3898 18.1259 94.1221 17.9943 93.8294 17.8507C94.0936 17.9907 94.3578 18.1306 94.622 18.2705C95.0903 18.5179 95.5609 18.7597 96.0337 18.996C95.4679 18.7354 94.9983 18.5066 94.6035 18.3073C92.8953 17.4448 92.6331 17.2331 92.05 16.9351C89.8387 15.8046 87.3647 14.7447 83.8957 12.7856C82.9785 12.2674 84.5664 12.9975 84.4522 12.9315C83.7668 12.5388 82.9147 12.1758 81.9734 11.7209C81.4494 11.4685 80.8923 11.1982 80.3095 10.8857C80.1698 10.8723 84.0342 12.2367 77.3697 9.65351C77.8318 9.82198 78.2911 10.0003 78.7453 10.1877C77.8487 9.67127 70.8043 8.01782 69.806 8.10014C66.978 7.85049 69.4568 7.89861 66.5976 7.80495C67.5135 7.89708 65.7968 7.85281 63.9231 7.98059C62.0474 8.09003 60.0269 8.42099 60.2637 8.32309C59.2251 8.53652 53.5515 9.84023 50.2205 11.6319C49.7053 11.8866 49.23 12.1223 48.8137 12.3304C46.6946 13.3895 42.4022 15.6098 41.7259 15.9404C40.902 16.343 41.1071 16.1304 39.617 16.8524C39.192 17.0583 34.8173 19.3301 30.9034 21.1769C30.145 21.5349 28.4959 22.1747 29.8707 21.4395C32.2238 20.1811 36.7958 18.0411 36.6942 17.9819C36.5794 17.9217 30.5303 21.0217 28.8884 21.8288C28.6099 21.9657 28.3475 22.0944 28.1003 22.2155C24.3871 23.9142 23.5121 23.7449 23.7505 23.7175C23.9636 23.6342 25.1149 23.2528 24.9947 23.2675C24.4043 23.5505 19.2937 24.3316 19.0629 24.1749C18.1741 24.2032 21.8149 23.9123 21.8481 23.7776C21.8756 23.7417 20.6645 23.8888 19.5827 23.89C18.5018 23.9018 17.5579 23.8076 18.1142 23.8191C19.7169 23.9784 24.1744 23.2384 24.4253 23.0472C27.9216 21.7951 23.0749 23.3775 21.6642 23.369C21.2479 23.4189 22.888 23.0953 22.5432 23.1463C17.2835 23.7241 21.4663 23.639 17.9188 23.711C14.7565 23.4832 18.8296 23.6686 18.7074 23.5999C18.5465 23.6777 14.7865 23.3255 14.2351 23.0682C14.0912 23.0263 16.4305 23.5369 18.7842 23.4301C21.1384 23.3765 23.3843 22.718 23.1749 22.7263C20.1852 23.4563 17.0198 23.4681 14.0176 22.7718C13.7894 22.7063 18.1546 23.4136 18.6277 23.2719C19.5481 23.2607 16.9831 23.1585 17.0996 23.096C17.1637 23.1098 20.1462 23.0968 17.4556 22.9832C16.5513 22.8928 14.5304 22.9126 11.403 21.6291C16.9732 23.476 18.0188 22.7509 17.3829 22.838C16.7778 22.7983 14.7091 22.4454 14.5528 22.3649C14.2408 22.2672 19.6415 23.2362 13.1167 21.8769C12.9077 21.5667 13.2584 21.9146 15.1186 22.2482C16.2612 22.4199 15.5191 22.2623 15.5314 22.2486C15.545 22.1513 16.2967 22.6649 20.5042 22.4155C20.2632 22.3929 18.4519 22.5326 16.674 22.3193C14.8911 22.1378 13.1882 21.6179 13.0219 21.5591C12.7287 21.4701 14.1784 21.8277 13.6704 21.6681C10.6882 20.6763 10.3481 20.2392 10.3969 20.2937C10.4645 20.3059 11.0233 20.5647 10.2413 20.1167C10.0175 20.17 5.20694 16.8425 8.91456 19.3005C16.1126 23.2096 20.0479 21.9155 21.2251 21.6329C15.2087 22.6581 8.42258 19.1967 7.16202 17.9378C5.03288 16.1707 7.26568 17.9686 7.02003 17.7284C6.90592 17.6784 5.15864 16.0711 5.16488 16.0179C4.69755 15.2854 6.35118 17.4101 9.21792 19.1222C12.0413 20.9219 16.0786 21.7777 18.0031 21.7486C16.972 21.6775 15.9515 21.5194 14.9525 21.2779C16.3171 21.5568 17.7131 21.68 19.1047 21.6422C12.4931 21.1532 18.8907 21.8599 20.4984 21.3313C20.8566 21.2662 16.5912 21.6971 21.4481 21.1156C17.8686 21.4574 18.9957 21.3804 15.7574 21.0944C15.8021 21.057 17.6495 21.3658 19.8401 21.1693C22.0335 21.0149 24.4768 20.2339 25.7665 19.6164C21.0328 21.4295 19.8075 20.9934 18.9223 21.1673C18.028 21.1317 17.1754 21.5551 12.9771 20.2482C11.391 19.8486 15.4149 21.055 15.1 20.9094C13.8879 20.7262 11.0606 19.9358 8.08365 18.051C7.61215 17.7222 9.46776 19.3104 6.63722 17.079C6.30537 16.8446 4.77715 15.135 4.8269 15.135C5.04839 15.3475 6.63739 16.9452 6.74934 16.9607C6.80626 17.0262 5.00391 15.2784 5.03351 15.238C5.02453 15.1452 6.50975 16.718 6.31458 16.4685C6.05752 16.243 4.45803 14.4275 4.0354 13.6716C3.70914 12.818 3.53048 13.9184 8.0166 17.6367C1.04811 10.9354 6.58966 17.4338 10.123 19.0349C10.9818 19.469 11.2178 19.5473 12.4992 20.0186C14.1519 20.6253 16.1875 20.9838 17.0944 21.0357C17.5809 21.0732 16.4455 20.9415 16.1922 20.869C15.9386 20.7234 16.545 21.1807 20.5311 20.9058C16.4587 21.5798 9.2609 19.2535 6.5642 16.1785C5.14326 14.7619 4.83807 14.1682 4.95044 14.2968C5.07881 14.4095 5.70788 15.1736 6.65299 16.0331C8.4881 17.8487 11.8967 19.4545 12.5749 19.6239C12.9238 19.7536 11.7835 19.2396 12.0177 19.3241C12.2008 19.4006 14.07 20.1732 16.1022 20.4537C18.1284 20.7791 20.2236 20.574 20.5869 20.4941C21.3248 20.4054 17.8174 20.6834 17.5862 20.5182C17.5065 20.5075 19.7529 20.5862 21.3614 20.2564C22.9653 19.933 23.9567 19.6476 21.5671 20.1572C18.2209 21.0634 11.9811 19.5092 11.2084 18.6857C15.6849 20.8473 21.0804 20.9184 25.5835 18.8425C23.0857 19.8978 20.3637 20.3381 17.6977 20.1208C20.773 20.2779 23.6308 19.6256 26.1683 18.3586C28.3554 17.2644 30.526 16.1674 32.7713 14.9972C20.2715 21.0261 36.7255 12.8312 36.8949 12.7181C36.9486 12.6742 31.9897 14.9697 31.1902 15.3357C35.4884 13.1102 48.6231 6.49553 40.8371 10.1628C42.2544 9.50542 45.5839 7.70796 45.5353 7.72248C45.0648 7.85535 37.7165 11.6028 38.8822 10.926C40.2329 10.1417 42.2447 9.2802 44.3844 8.19674C45.6503 7.55561 46.7273 7.0028 47.659 6.51811C55.5227 3.12801 54.0648 2.52979 65.8437 1.72997C65.5776 1.71464 65.3112 1.70185 65.0445 1.69163C71.8549 1.52253 78.698 3.06099 84.7753 6.12718C89.0157 8.26199 93.2562 10.3968 97.4966 12.5316C99.5275 13.5543 101.613 14.4683 103.741 15.268C108.383 17.2094 121.545 19.6048 128.087 19.0348C129.403 19.0871 135.818 18.4694 136.291 18.326C137.19 18.2343 132.283 18.9311 134.508 18.6771C135.021 18.8549 145.677 16.3859 144.855 16.3521C143.693 16.7378 139.988 17.7176 139.364 17.8027C136.904 18.1899 146.351 16.638 154.47 12.4192C161.534 8.80191 169.066 7.02782 169.84 6.83634C169.033 6.99851 168.227 7.17554 167.426 7.36634C169.695 6.76163 171.993 6.27109 174.309 5.89688ZM76.5095 9.7196C75.3217 9.40728 72.338 8.64319 70.5228 8.47263C68.0175 8.11713 63.768 8.59431 65.594 8.23164C69.2769 8.15071 72.9758 8.6537 76.5095 9.7196ZM133.596 25.3935C130.769 25.619 132.946 25.2739 135.252 25.0445C135.506 25.0099 137.412 24.989 133.596 25.3935ZM104.273 22.2658C104.385 22.3109 106.724 23.029 106.809 23.0453C108.891 23.7536 101.836 21.5684 104.273 22.2658ZM236.928 25.0656C233.84 24.6387 236.049 25.1436 237.987 25.2957C238.109 25.3063 237.131 25.0932 236.928 25.0656ZM234.735 24.7461C232.367 24.2599 227.556 23.4146 231.348 24.2401C231.715 24.3338 234.843 24.7859 234.735 24.7461ZM123.506 25.6889C123.826 25.658 126.746 25.7306 127.993 25.6903C127.961 25.7562 124.729 25.7492 123.506 25.6889ZM191.747 11.8256C191.873 11.6419 182.649 11.4252 182.03 11.6911C183.48 11.4313 191.646 11.7373 191.747 11.8256ZM214.366 18.2111C214.168 18.0808 211.272 16.7522 211.336 16.8409C212.334 17.3085 213.911 18.0433 214.407 18.2681C214.615 18.3607 214.653 18.3673 214.421 18.2409C214.404 18.2318 214.386 18.2218 214.366 18.2111ZM264.674 23.0688C264.845 22.9771 262.294 23.5822 268.26 21.8624C269.135 21.6 266.058 22.6767 266.365 22.5757C267.019 22.3925 267.534 22.233 267.944 22.0982C265.204 23.0466 262.272 23.7606 261.986 23.8095C260.643 24.0664 264.601 23.1224 264.674 23.0688ZM288.759 13.6004C289.266 13.3942 292.654 12.6089 293.438 12.4993C293.572 12.4789 293.011 12.6837 294.545 12.3947C295.781 12.1791 293.912 12.3705 296.331 12.0064C298.781 11.6792 295.522 12.2131 295.739 12.1972C296.02 12.1301 299.808 11.6218 299.698 11.72C299.611 11.7457 295.55 12.2172 294.561 12.4414C293.291 12.6897 294.845 12.4643 292.722 12.8701C291.392 13.1431 292.099 12.855 291.817 12.9089C291.569 12.9148 286.996 14.221 288.766 13.5988C288.763 13.5993 288.761 13.5999 288.759 13.6004ZM268.684 21.8407C268.479 21.9163 268.238 22.0013 267.944 22.0982C268.192 22.0134 268.44 21.9272 268.684 21.8407ZM83.2307 12.486C83.9263 12.8606 83.0441 12.4492 81.8922 11.8829C81.0709 11.4765 80.0804 11.0344 79.5019 10.7736C79.4986 10.7394 80.88 11.3006 81.92 11.8275C82.5954 12.1638 83.1573 12.4464 83.2307 12.486ZM271.166 20.8115C275.152 19.2022 272.288 20.5484 268.684 21.8407C269.823 21.4137 269.815 21.3181 271.166 20.8115ZM158.533 17.6475C158.686 17.5858 158.787 17.5557 158.81 17.5734C158.406 17.7327 158.365 17.7369 158.533 17.6475ZM167.041 14.372C170.007 13.3741 163.938 15.2706 164.016 15.3739C164.036 15.3713 166.917 14.395 167.041 14.372ZM240.905 25.4658C240.595 25.4212 245.475 25.5785 238.398 25.1777C242.164 25.56 238.185 25.2223 238.242 25.2361C238.384 25.3766 244.744 25.7362 246.155 25.6716C247.258 25.5859 241.939 25.6212 240.913 25.4664C240.911 25.4662 240.908 25.466 240.905 25.4658ZM332.292 17.1859C331.555 16.9063 329.278 15.9034 327.696 15.3311C328.457 15.5341 330.771 16.4696 332.292 17.1859ZM778.301 11.7172C766.921 13.4453 765.452 13.8655 775.834 11.9218C776.037 11.8771 778.994 11.6108 778.301 11.7172ZM678.042 12.6538C676.997 12.3238 680.538 13.0168 682.792 13.7463C683.306 13.9021 685.159 14.5891 682.995 13.9569C683.109 13.8332 679.748 12.851 678.042 12.6538ZM273.386 19.8258C274.057 19.4915 275.593 18.8096 277.085 18.0705C277.999 17.6197 278.916 17.2038 279.597 16.9045C279.131 17.1432 278.158 17.5988 277.111 18.1239C275.773 18.7968 274.278 19.4587 273.386 19.8258ZM741.038 23.5283C739.743 23.8262 738.882 24.0923 739.109 24.0556C740.126 23.8946 742.523 23.2258 741.038 23.5283ZM261.596 23.6813C261.425 23.717 266.333 22.3646 266.691 22.3177C265.659 22.6691 261.73 23.7052 261.596 23.6813ZM329.391 15.9044C328.732 15.6018 332.211 16.9951 333.21 17.534C333.119 17.5166 329.835 16.0685 329.391 15.9044ZM719.793 25.2547C718.604 25.1777 715.651 24.8287 715.321 24.8083C714.905 24.8264 719.245 25.3121 719.793 25.2547ZM924.244 14.2852C924.374 14.3213 920.302 13.2284 918.473 12.8328C915.02 11.9625 924.147 14.0738 924.244 14.2852ZM752.93 19.4957C756.388 18.033 752.558 19.6776 752.742 19.687C753.651 19.2968 755.074 18.6429 756.217 18.0623C757.845 17.2496 758.914 16.7391 756.717 17.7192C756.576 17.784 756.39 17.8729 756.175 17.9786C755.246 18.4412 753.795 19.1263 752.93 19.4957ZM749.717 20.7749C749.358 20.9556 746.842 21.9578 749.041 21.1598C750.056 20.785 751.635 20.0381 749.717 20.7749ZM898.436 11.5396C895.344 11.5275 909.474 11.0024 909.869 11.433C910.083 11.4586 910.222 11.4785 910.301 11.4919C910.821 11.4956 913.473 11.8079 913.767 11.9343C912.977 11.803 910.808 11.5675 910.555 11.5448C910.447 11.5314 910.366 11.521 910.31 11.5129C909.377 11.2724 899.018 11.2924 898.436 11.5396ZM876.033 17.8838C879.153 16.2183 879.851 16.2481 879.565 16.3575C876.094 17.9912 878.316 16.8344 878.204 16.8703C877.946 16.9568 875.526 18.2157 876.043 17.8788C876.039 17.8805 876.036 17.8821 876.033 17.8838ZM893.678 12.1459C893.818 12.1016 896.748 11.677 896.871 11.6823C899.279 11.4026 890.999 12.622 893.678 12.1459ZM307.211 11.1836C309.33 11.276 307.249 11.2651 305.842 11.2379C305.726 11.239 305.34 11.1318 307.211 11.1836ZM747.991 21.4283C747.568 21.9148 734.207 24.9502 734.985 24.6708C736.232 24.929 751.24 20.6557 747.991 21.4283ZM652.124 12.4754C654.301 12.0488 651.947 12.6083 650.788 12.8392C650.356 12.9215 651.576 12.5843 652.124 12.4754ZM254.824 24.8014C252.337 25.1618 252.832 24.9016 254.997 24.7031C255.082 24.6946 254.921 24.7863 254.824 24.8014ZM669.751 11.3981C662.108 11.255 663.945 10.4899 673.855 11.6642C673.544 11.6372 673.233 11.6124 672.922 11.5899C684.241 13.5576 673.723 11.5342 670.901 11.4175C669.836 11.3323 670.724 11.4662 669.759 11.3991C669.756 11.3988 669.754 11.3985 669.751 11.3981ZM640.971 15.8488C634.068 18.4904 647.11 13.0512 651.183 12.5448C647.377 13.4975 642.528 15.0328 649.206 13.2179C639.512 16.0949 643.562 14.9574 643.15 14.9955C642.696 15.1449 641.264 15.7368 640.971 15.8488ZM659.81 11.3648C660.233 11.3039 663.441 11.1809 664.596 11.1884C662.979 11.2088 656.999 11.6539 659.81 11.3648ZM850.456 25.1367C850.739 25.036 851.453 24.9689 854.19 24.6336C853.351 24.7879 851.603 25.0181 850.456 25.1367ZM74.3432 8.75759C72.7109 8.31573 69.3729 7.8933 70.3875 8.09257C70.5066 8.06086 74.3379 8.74646 74.3432 8.75759ZM708.78 23.3979C708.336 23.4778 698.416 20.2034 701.815 21.4145C702.788 21.9595 712.015 24.2883 708.78 23.3979ZM760.689 15.8644C759.934 16.1446 756.971 17.5104 756.924 17.5714C756.739 17.6938 760.37 16.0165 760.689 15.8644ZM65.9083 7.72545C65.6805 7.62619 60.5376 8.09279 61.1129 8.11674C62.1784 7.94438 66.6679 7.70385 65.9083 7.72545ZM314.92 11.6734C315.362 11.7344 315.934 11.9007 316.086 11.9269C316.468 11.8643 324.415 13.7377 321.361 13.0931C320.905 12.7293 309.3 10.9202 307.744 11.1489C307.158 10.9956 312.166 11.3692 313.372 11.5627C313.585 11.5885 313.733 11.5123 314.916 11.6733C314.918 11.6733 314.919 11.6734 314.92 11.6734ZM864.547 22.4213C864.97 22.4289 874.668 18.6154 874.523 18.5735C871.305 20.1082 867.964 21.3971 864.547 22.4213ZM859.409 23.7246C857.225 24.1483 862.318 23.0438 863.787 22.5887C863.823 22.654 859.736 23.6947 859.409 23.7246ZM742.671 22.7597C741.666 23.0488 744.793 22.2926 744.104 22.4981C743.666 22.646 741.394 23.2072 740.672 23.3934C740.469 23.4575 742.811 22.9784 743.474 22.7788C744.418 22.5088 743.483 22.7025 744.512 22.4053C747.919 21.3994 750.891 20.3261 753.924 18.9417C754.198 18.8174 752.054 19.7392 754.389 18.6732C754.567 18.5894 755.199 18.3164 756.122 17.8734C756.979 17.4627 758.121 16.9332 759.421 16.3661C765.094 13.763 769.605 12.5431 777.444 11.454C777.137 11.3999 771.274 12.3237 770.945 12.4645C766.95 13.2924 761.122 15.135 756.043 17.7148C752.603 19.4406 749.162 20.7739 746.41 21.6637C744.572 22.2478 745.479 22.0085 744.684 22.252C744.053 22.4336 744.783 22.1511 742.671 22.7597ZM75.2247 8.92811C74.4743 8.61452 71.6897 8.073 69.8908 7.90801C70.5162 8.02847 73.53 8.42151 75.2247 8.92811ZM813.823 17.992C813.742 17.9521 813.646 17.9042 813.537 17.8499C812.525 17.3262 810.321 16.3149 810.108 16.26C809.857 16.1716 812.639 17.4353 813.528 17.8682C813.687 17.9415 813.793 17.9862 813.823 17.992ZM360.975 25.0403C361.073 25.0549 363.512 25.1749 363.604 25.1698C365.783 25.3423 358.463 24.9667 360.975 25.0403ZM415.537 11.8221C417.22 11.5431 418.932 11.3389 419.51 11.3595C418.423 11.4266 415.345 11.8897 415.537 11.8221ZM490.493 25.0185C490.109 24.9958 495.656 24.4818 496.688 24.2556C496.32 24.4161 490.784 25.1203 490.493 25.0185ZM850.032 24.8734C853.422 24.5796 852.687 24.4862 854.834 24.2632C855.181 24.2094 856.363 24.3899 852.63 24.7501C851.958 24.7914 854.571 24.4884 850.032 24.8734ZM675.459 11.9105C676.259 11.9693 678.711 12.4519 680.346 12.8717C679.973 12.8065 676.649 12.0745 675.459 11.9105ZM56.6793 8.92302C55.2163 9.05138 49.1857 11.7771 50.7162 11.1846C50.8915 11.0095 55.7505 9.06354 56.6793 8.92302ZM280.81 16.0782C283.137 15.0535 278.912 16.7279 276.954 17.81C276.734 17.9255 276.538 18.0286 276.374 18.1155C276.504 18.0513 276.709 17.9508 276.962 17.8252C278.172 17.2044 280.661 16.1339 280.81 16.0782ZM471.246 23.7093C471.386 23.7541 474.553 24.3342 474.698 24.3416C477.285 24.8813 468.322 23.2207 471.246 23.7093ZM398.6 16.824C399.511 16.2323 406.126 13.7701 407.69 13.4912C406.188 13.8067 397.38 17.3341 398.6 16.824ZM836.058 24.5766C838.468 24.8756 840.767 25.0555 842.997 25.1356C842.522 25.2433 836.3 24.7116 836.058 24.5766ZM482.967 25.1092C483.14 25.1155 483.308 25.1261 483.472 25.1311C483.3 25.1244 483.132 25.1169 482.967 25.1092ZM786.237 10.9379C784.357 10.8893 784.747 10.9957 784.863 10.9942C786.276 11.0188 788.365 11.0267 786.237 10.9379ZM73.2323 8.32883C72.6339 8.09889 69.5883 7.68346 67.8246 7.61847C68.3356 7.66595 71.8458 8.00325 73.2323 8.32883ZM633.507 19.1067C632.341 19.5666 634.041 18.8161 636.242 17.6823C638.357 16.5706 641.143 15.4111 642.124 15.0797C642.222 15.0678 638.733 16.4786 636.286 17.7693C634.828 18.5175 633.629 19.0556 633.507 19.1067ZM272.518 19.7549C272.319 19.8076 268.259 21.4088 269.135 21.1069C269.702 20.9465 272.651 19.7574 272.518 19.7549ZM646.716 13.5617C647.576 13.2755 649.63 12.8079 648.922 13.0309C648.013 13.3104 646.494 13.6319 646.716 13.5617ZM727.955 24.941C727.531 25.0082 721.79 25.0382 724.161 25.1205C725.809 25.1768 726.07 25.0672 726.457 25.0619C726.893 25.1456 736.095 24.5588 727.955 24.941ZM576.935 19.1127C578.923 19.9752 581.359 20.948 583.517 21.6478C582.611 21.4467 577.736 19.5818 576.935 19.1127ZM287.208 13.6338C286.634 13.4728 274.403 18.6127 281.367 15.7401C281.74 15.4797 288.626 13.224 287.208 13.6338ZM850.032 24.8734C849.604 24.9055 849.11 24.9366 848.537 24.962C849.106 24.9331 849.601 24.9032 850.032 24.8734ZM812.732 17.2822C813.411 17.5445 810.109 15.983 809.088 15.6263C808.771 15.526 812.655 17.214 812.732 17.2822ZM583.701 21.6411C584.949 22.0277 587.217 22.7119 588.792 23.0816C588.508 23.0921 584.214 21.8929 583.701 21.6411ZM500.685 23.2765C503.224 22.747 506.27 21.7854 506.298 21.7158C506.352 21.7072 506.474 21.6775 506.676 21.6216C506.883 21.5755 509.5 20.6546 510.625 20.2156C513.988 18.8885 507.577 21.7027 502.367 22.9159C497.159 24.0781 493.564 24.8383 503.448 22.4928C502.533 22.7729 501.612 23.0341 500.685 23.2765ZM389.287 20.7976C387.896 21.2765 383.974 22.5271 385.003 22.2422C385.739 22.1017 390.701 20.3725 389.287 20.7976ZM440.514 12.5561C440.125 12.4218 436.457 11.7261 436.353 11.7677C438.467 12.1309 442.305 13.0502 440.514 12.5561ZM378.383 23.7081C377.476 23.8715 376.329 24.1556 376.437 24.1424C377.373 24.0447 379.915 23.4707 378.383 23.7081ZM842.998 24.783C841.628 24.7592 837.269 24.4896 836.317 24.405C836.143 24.3702 835.671 24.2979 834.807 24.1534C834.81 24.1538 834.812 24.1541 834.815 24.1545C834.225 24.1465 825.208 22.4875 819.638 20.1423C814.114 17.7676 811.326 16.8785 822.352 21.2326C823.057 21.4648 822.102 21.1262 824.985 22.0245C825.177 22.0816 825.258 22.1586 825.85 22.3295C827.188 22.8279 834.6 24.3695 836.132 24.408C836.143 24.4185 836.24 24.4394 836.446 24.4722C838.288 24.8375 844.064 24.8622 842.998 24.783ZM447.598 14.6856C446.902 14.398 444.636 13.6709 444.386 13.6497C445.518 13.9843 449.218 15.3255 447.598 14.6856ZM286.762 13.5838C285.275 13.9669 281.667 15.4022 282.778 15.0234C283.436 14.7338 288.456 13.0893 286.762 13.5838ZM424.237 10.8013C433.007 10.9664 426.332 10.8055 427.677 10.7597C426.53 10.743 425.383 10.7569 424.237 10.8013ZM884.187 14.1313C882.859 14.5717 884.369 13.9016 885.867 13.5197C886.335 13.3995 884.929 13.8857 884.187 14.1313ZM945.053 23.3987C943.994 22.7441 949.38 25.5149 947.235 24.5257C947.136 24.4789 945.13 23.4422 945.053 23.3987ZM902.851 10.7464C901.904 10.858 901.285 10.8533 898.618 11.0673C902.565 10.7476 898.894 10.9019 902.851 10.7464ZM506.269 21.7165C506.286 21.7144 506.3 21.7123 506.298 21.7158C506.28 21.7188 506.271 21.7187 506.269 21.7165ZM369.577 24.8048C368.394 24.8329 365.083 24.8711 366.07 24.9235C366.165 24.9432 369.096 24.8971 369.577 24.8048ZM836.317 24.405C836.472 24.4352 836.391 24.4334 836.132 24.408C836.121 24.398 836.189 24.3984 836.317 24.405ZM387 21.4731C386.914 21.5946 391.665 19.8894 391.833 19.7656C394.475 18.5802 389.005 20.8935 387 21.4731ZM256.104 24.0654C255.847 24.1108 257.526 23.9802 258.528 23.7378C259.303 23.5555 257.065 23.9129 256.104 24.0654ZM911.933 11.1088C913.41 11.2684 915.476 11.6068 915.844 11.7371C914.869 11.5339 911.899 11.1344 911.933 11.1088ZM942.969 22.2649C941.31 21.5108 937.591 19.6478 935.221 18.4482C935.218 18.3453 941.431 21.5185 942.969 22.2649ZM847.324 24.789C847.193 24.8189 843.193 24.8137 843.739 24.8611C844.537 24.9927 848.455 24.7895 847.324 24.789ZM263.723 22.5439C265.438 22.0363 261.438 23.0029 259.602 23.4412C258.666 23.7099 263.442 22.6719 263.723 22.5439ZM359.248 24.5464C356.891 24.3732 362.722 24.9447 363.546 24.8407C362.457 24.8149 360.083 24.6209 359.248 24.5464ZM434.476 11.2415C427.599 10.2723 431.326 11.0404 432.549 11.1219C432.722 11.1291 434.643 11.2637 434.476 11.2415ZM40.7843 15.7048C39.8862 16.183 43.3179 14.567 43.7295 14.2931C43.9837 14.1234 41.3586 15.399 40.7843 15.7048ZM538.857 11.048C538.566 11.0775 538.277 11.1089 537.992 11.1418C538.206 11.1146 538.487 11.0826 538.857 11.048ZM338.643 19.1159C343.386 21.3234 342.997 20.8195 343.411 20.997C344.336 21.32 346.493 22.072 348.29 22.516C346.232 22.0142 344.194 21.417 342.188 20.7269C343.645 21.7034 357.895 24.847 358.263 24.4846C358.7 24.5013 354.155 23.9203 354.029 23.8558C353.84 23.817 353.165 23.5304 352.751 23.4445C352.008 23.5551 340.322 20.1906 338.643 19.1159ZM420.006 10.8712C421.119 10.7992 421.439 10.8508 421.955 10.8051C422.131 10.7907 422.156 10.7246 422.757 10.6821C421.839 10.7256 420.922 10.7886 420.006 10.8712ZM330.342 15.5589C329.262 15.0243 333.431 16.8061 334.599 17.4552C334.789 17.5524 334.911 17.6142 334.936 17.6275C335.225 17.7863 335.028 17.7078 334.578 17.4963C333.557 16.9994 331.073 15.8938 330.342 15.5589ZM384.578 22.1544C384.356 22.2621 379.391 23.4361 379.431 23.4273C380.782 23.2778 387.356 21.4245 384.578 22.1544ZM423.501 10.6508C425.174 10.5833 428.33 10.7444 427.972 10.6452C427.969 10.6451 427.967 10.645 427.964 10.6449C426.477 10.5955 424.988 10.5975 423.501 10.6508ZM269.498 20.5112C266.317 21.4586 267.875 21.1664 270.645 20.1751C271.451 19.7902 270.017 20.3523 269.498 20.5112ZM259.265 23.264C258.382 23.5887 248.948 24.6474 250.388 24.5204C250.911 24.5702 256.333 23.875 256.574 23.7894C256.952 23.7322 255.246 24.1157 258.119 23.6072C257.947 23.6122 259.578 23.2144 259.265 23.264ZM266.871 21.3102C263.697 22.1767 263.025 22.5308 265.413 21.8616C266.342 21.5886 267.324 21.1808 266.871 21.3102ZM279.096 16.1794C278.594 16.3949 277.69 16.7981 276.696 17.2952C275.599 17.8447 274.371 18.4268 273.37 18.9006C274.499 18.411 275.615 17.8916 276.719 17.3415C278.13 16.6388 279.562 15.9894 281.019 15.3917C281.295 15.2346 279.987 15.7921 279.089 16.1825C279.092 16.1815 279.094 16.1805 279.096 16.1794ZM960.347 30.366C958.108 29.1777 963.338 31.7719 963.552 31.8956C964.186 32.2676 961.348 30.8973 960.347 30.366ZM21.8171 22.1445C21.0991 22.2304 20.6302 22.2544 19.0524 22.349C20.6434 22.3717 22.2451 22.191 23.8053 21.81C24.9656 21.3345 22.607 22.0811 21.8171 22.1445ZM15.8239 21.7165C16.0448 21.7198 14.8763 21.4543 17.6746 21.8349C18.6348 21.8922 16.48 22.0164 13.94 21.372C11.3803 20.7879 8.67531 19.2002 7.95384 18.5993C9.61771 19.8793 13.9107 21.5925 15.8239 21.7165ZM2.55055 10.8678C2.43999 10.7993 4.37471 14.0339 4.72655 14.32C5.43715 15.2167 4.8272 14.5964 4.09683 13.5986C3.35612 12.6067 2.63241 11.1698 2.55055 10.8678ZM10.8407 19.2901C9.26685 18.4728 12.7979 20.2003 13.9631 20.4176C14.0456 20.5422 11.0573 19.4824 10.8407 19.2901ZM938.724 16.2346C936.984 15.2082 935.238 14.6674 938.038 16.0025C938.171 16.0662 938.797 16.2792 938.724 16.2346ZM4.61817 13.8922C5.65475 15.3099 3.2486 12.243 2.85757 11.1286C2.7901 11.0443 4.40205 13.719 4.61817 13.8922ZM937.603 15.3043C935.254 14.0164 935.947 14.7376 936.24 14.8994C937.448 15.5641 941.731 17.5625 942.608 17.9656C936.264 14.8436 938.708 15.9107 937.603 15.3043ZM926.027 10.5232C923.62 9.75245 929.719 11.8755 930.862 12.3431C929.71 11.843 926.718 10.7219 926.027 10.5232ZM911.046 7.2651C909.694 7.08967 905.643 6.89518 904.963 6.97372C906.452 6.93666 910.471 7.23709 911.046 7.2651ZM907.978 6.88623C905.847 6.72688 905.332 6.92538 907.79 6.95204C907.885 6.95402 908.056 6.89407 907.978 6.88623ZM895.996 7.27155C894.593 7.36738 893.046 7.81572 895.289 7.49041C895.957 7.40069 896.145 7.26303 895.996 7.27155ZM934.75 13.4768C932.952 12.5677 930.53 11.6387 934.418 13.4541C933.053 12.8192 931.664 12.2282 930.26 11.6846C933.589 13.1118 934.586 13.6074 935.303 13.8934C935.684 14.0531 935.972 14.171 936.47 14.4238C938.431 15.4195 938.202 15.4897 937.784 15.3383C939.442 16.0555 946.294 19.486 950.263 21.4522C946.802 19.671 941.187 16.7763 937.765 15.032C936.92 14.601 936.078 14.2165 935.327 13.8465C935.206 13.7872 935.088 13.7287 934.972 13.6707C933.593 12.9893 934.85 13.5279 934.757 13.4802C934.755 13.4791 934.752 13.4779 934.75 13.4768ZM880.7 11.0355C876.83 12.453 879.317 11.6513 881.488 10.8245C881.58 10.7875 880.797 11.0005 880.7 11.0355ZM2.78071 9.305C3.6584 11.582 3.89396 11.8473 4.40034 12.7098C5.00589 13.4563 5.68128 15.2751 10.076 17.9396C6.42321 15.6715 9.8103 17.9123 9.08847 17.4832C8.47353 17.1773 6.56226 15.493 7.63982 16.51C6.90315 15.8789 5.01869 14.0505 3.84189 11.952C2.6155 9.88343 2.08212 7.71805 2.04224 7.53544C2.04312 7.5389 2.04401 7.54235 2.0449 7.5458C2.00918 7.32105 2.27196 7.83828 2.78071 9.305ZM911.076 6.73579C909.72 6.37294 909.155 6.69 906.453 6.39637C902.839 6.44399 916.425 7.00976 917.951 7.93202C903.451 5.47155 927.451 9.97534 917.435 7.703C925.68 9.66036 920.158 8.25927 921.448 8.494C922.835 8.73982 927.396 10.2565 927.185 10.1197C927.183 10.1189 927.18 10.118 927.178 10.1171C924.397 9.159 921.556 8.37967 918.676 7.78532C921.445 8.57727 915.599 7.25055 913.585 6.89779C912.749 6.82846 911.912 6.77445 911.076 6.73579ZM927.209 10.4484C926.961 10.2784 920.838 8.52328 921.211 8.72134C922.071 8.80792 930.635 11.6832 927.209 10.4484ZM952.096 22.2351C950.102 21.2359 947.036 19.657 945.916 19.1794C947.91 20.1788 950.977 21.7579 952.096 22.2351ZM841.853 20.6577C839.081 20.6475 847.609 20.8425 845.142 20.726C845.02 20.7406 841.989 20.6781 841.853 20.6577ZM904.438 6.46841C901.467 6.43886 902.877 6.63192 905.072 6.57145C905.199 6.56827 904.576 6.47068 904.438 6.46841ZM4.61602 12.7838C4.68832 12.8386 5.69574 14.3513 7.13293 15.6611C8.543 17.0013 10.3603 18.0466 10.9212 18.3169C10.592 18.1921 8.64374 17.1681 7.13278 15.7525C5.59029 14.3728 4.53216 12.7147 4.61602 12.7838ZM955.703 23.7969C951.83 21.6212 946.337 19.1419 945.749 18.8414C945.164 18.5426 946.126 18.9215 945.994 18.8522C945.691 18.6947 939.435 15.5698 939.13 15.424C938.911 15.32 939.984 16.0024 938.675 15.3924C941.226 16.5876 952.635 22.3542 953.235 22.6384C953.699 22.8584 950.296 21.0018 955.696 23.7935C955.698 23.7946 955.701 23.7958 955.703 23.7969ZM944.286 18.0772C945.824 18.9081 941.44 16.7201 940.39 16.1713C938.054 14.9514 944.089 17.9711 944.286 18.0772ZM933.711 12.7546C933.214 12.4527 928.404 10.4654 927.952 10.419C930.26 11.2742 934.888 13.3225 933.711 12.7546ZM877.54 11.8543C876.703 12.2111 874.888 13.0186 873.763 13.5936C873.249 13.8522 872.878 14.037 872.827 14.0809C873.069 13.9628 873.401 13.8021 873.774 13.617C875.246 12.8744 877.4 11.9531 877.54 11.8543ZM25.7561 18.0966C25.0143 18.4203 25.301 18.2832 25.9633 17.9492C26.9886 17.4227 28.8239 16.5024 29.5922 16.1313C29.6674 16.1276 26.86 17.5465 25.9819 17.9865C25.8578 18.0486 25.7766 18.0873 25.7561 18.0966ZM903.93 5.96692C903.092 5.49429 886.814 7.73121 884.729 8.92988C886.791 7.81676 902.897 5.6181 903.668 6.0422C903.883 6.03346 904.033 5.96854 903.93 5.96692ZM937.898 14.4141C939.231 14.9951 940.036 15.5028 940.2 15.5859C941.8 16.4009 945.138 18.0533 944.374 17.7544C941.554 16.308 935.243 13.2573 937.898 14.4141ZM876.334 11.9978C871.279 14.3199 881.068 10.0445 879.783 10.5962C879.69 10.6099 876.851 11.7426 876.334 11.9978ZM905.762 5.95058C907.031 5.4329 923.304 7.89904 925.693 9.22012C923.41 8.62352 921.605 8.01778 918.501 7.37435C917.663 7.20666 917.877 7.3011 917.787 7.28286C916.333 7.01118 917.432 7.15894 916.534 6.99655C915.993 6.63684 904.042 5.82732 905.762 5.95058ZM938.663 14.7372C939.475 15.0941 948.329 19.5079 948.68 19.6968C951.302 21.109 939.343 15.0954 938.663 14.7372ZM904.257 5.83888C906.03 5.58281 914.173 6.31688 908.595 5.97534C908.064 5.94418 905.808 5.79147 904.257 5.83888ZM876.827 11.6399C876.687 11.6966 875.007 12.4271 873.547 13.1639C872.44 13.7194 871.43 14.1817 871.397 14.2179C871.631 14.1173 872.543 13.7065 873.564 13.1975C875.837 12.0495 878.778 10.8427 876.827 11.6399ZM879.562 10.3571C879.434 10.4136 880.727 9.97724 878.191 10.9829C877.986 11.082 877.529 11.0949 874.437 12.5931C874.151 12.7345 873.799 12.9239 873.508 13.0865C873.191 13.2656 872.952 13.4032 872.988 13.388C873.154 13.3154 873.338 13.2322 873.535 13.1395C877.135 11.2758 885.822 8.05567 879.562 10.3571ZM938.859 14.7511C938.399 14.4773 939.601 14.9493 940.612 15.5213C941.045 15.7666 940.184 15.4136 938.859 14.7511ZM860.672 17.9466C863.706 17.1671 854.117 19.3702 853.589 19.2746C853.92 19.3567 860.388 18.1121 860.672 17.9466ZM30.0459 15.3412C30.0436 15.3423 30.0413 15.3435 30.039 15.3446C32.4979 14.1308 31.0055 14.9439 31.1212 14.8881C36.3821 12.3492 34.9374 12.9243 35.7471 12.5012C37.483 11.5937 37.2732 11.8795 40.1971 10.34C35.3587 12.8742 39.7846 10.6109 39.9486 10.593C40.6009 10.5287 33.3986 13.7511 30.9861 15.0145C30.65 15.1905 33.1879 14.0029 32.3284 14.4573C29.5338 15.9343 20.6106 19.9989 30.0459 15.3412ZM941.416 15.9127C942.584 16.4207 951.181 20.8019 948.869 19.7069C948.497 19.5308 939.699 15.1652 941.416 15.9127ZM505.507 16.5197C507.598 15.7671 502.685 17.312 501.759 17.5474C501.309 17.7044 504.592 16.8779 505.507 16.5197ZM469.911 17.6122C467.355 16.9884 464.63 16.3597 467.789 17.2756C468.125 17.377 470.195 17.7246 469.911 17.6122ZM642.838 9.10438C639.973 10.0072 640.206 10.118 642.276 9.37397C643.01 9.12094 642.928 9.07768 642.838 9.10438ZM537.662 5.9105C537.36 5.91513 533.928 6.40793 534.062 6.44346C535.324 6.22322 539.595 5.74121 537.662 5.9105ZM643.735 8.78471C642.055 9.37006 644.989 8.49884 647.061 7.84164C645.995 8.12553 643.907 8.71956 643.735 8.78471ZM898.067 5.78046C896.588 5.95915 892.413 6.51827 890.056 7.06879C889.769 6.97623 896.336 5.86505 898.067 5.78046ZM480.932 19.4545C478.434 19.3446 483.776 19.7444 483.29 19.6052C483.221 19.6076 481.03 19.4679 480.932 19.4545ZM733.577 19.0171C731.787 19.3392 737.501 18.5336 735.916 18.6854C735.839 18.7042 733.676 19.0099 733.577 19.0171ZM757.679 10.9751C756.936 11.2716 754.936 12.1642 753.605 12.8487C752.53 13.3914 751.89 13.7009 752.864 13.263C752.941 13.2276 753.231 13.0891 753.627 12.8915C754.992 12.1899 757.609 11.0336 757.679 10.9751ZM35.8635 12.3721C35.13 12.6386 39.1626 10.6427 39.7455 10.3684C39.9747 10.2609 36.8201 12.0243 35.8635 12.3721ZM625.591 16.2702C624.253 16.7666 620.682 17.7282 620.054 17.901C621.761 17.5329 626.075 16.232 625.591 16.2702ZM492.301 19.2307C490.131 19.4009 486.424 19.5212 487.344 19.6167C491.444 19.3961 486.838 19.6265 492.301 19.2307ZM653.425 6.31758C652.193 6.5174 651.282 6.83237 651.421 6.80935C652.752 6.59393 654.655 6.16561 653.425 6.31758ZM569.193 9.68373C569.153 9.58335 565.353 8.35097 565.847 8.56085C566.017 8.6035 569.239 9.72583 569.193 9.68373ZM850.158 19.3729C848.484 19.4791 853.58 18.9713 855.076 18.7216C855.823 18.7241 850.375 19.4189 850.158 19.3729ZM687.527 9.09724C687.748 9.02605 681.737 7.30784 684.084 8.05573C684.678 8.22287 687.462 9.088 687.527 9.09724ZM741.083 17.3678C739.233 17.8735 742.237 17.2298 745.105 16.2789C747.978 15.3464 750.693 14.1321 748.718 14.894C748.468 15.0982 741.433 17.3773 741.083 17.3678ZM766.776 7.71243C766.078 7.90277 766.344 7.50254 769.29 6.91376C769.676 6.83575 767.9 7.32499 768.218 7.2679C768.388 7.16011 774.789 5.96111 775.096 5.98742C775.415 5.93603 775.027 5.90496 775.35 5.85088C775.712 5.76871 779.708 5.39109 781.808 5.33605C785.762 5.20316 786.192 5.2347 786.516 5.22267C787.462 5.24498 789.05 5.35231 790.959 5.5208C798.545 6.04636 809.075 8.91557 816.13 12.6729C817.895 13.5741 819.528 14.3121 820.904 14.8989C819.261 14.2206 817.669 13.4939 816.111 12.7126C811.843 10.5752 807.418 8.93024 802.738 7.69975C804.722 7.92801 792.984 5.68107 799.859 6.94315C798.302 6.58424 790.622 5.07973 782.953 5.37452C775.28 5.51358 767.91 7.40187 766.783 7.71035C766.781 7.71105 766.778 7.71174 766.776 7.71243ZM460.102 14.2231C460.972 14.5342 458.843 13.6444 456.8 12.6297C455.116 11.7944 453.398 11.0805 453.078 10.9926C453.592 11.2185 455.208 11.9251 456.764 12.7002C458.375 13.5019 460.003 14.1868 460.102 14.2231ZM497.53 18.0425C498.277 17.8587 498.974 17.6401 502.867 16.6556C502.871 16.6545 502.874 16.6535 502.878 16.6525C504.014 16.3487 502.74 16.7649 502.95 16.7188C503.032 16.7193 506.562 15.7054 503.653 16.6241C499.178 17.9022 503.203 16.6385 500.806 17.2701C500.524 17.3861 495.947 18.4202 496.211 18.3587C496.24 18.3598 497.626 18.0847 497.855 18.0431C498.726 17.8993 498.316 18.0375 498.439 18.0153C498.866 18.0392 506.007 15.9791 507.015 15.5765C507.434 15.7294 495.635 18.9149 495.099 18.6911C494.801 18.7281 494.903 18.5593 494.594 18.59C494.441 18.6499 489.571 19.2268 488.929 19.198C488.745 19.2043 488.603 19.2071 488.5 19.2086C489.245 19.2454 484.802 19.3622 484.939 19.275C485.016 19.2723 488.071 19.2281 488.18 19.209C488.228 19.2084 488.27 19.2087 488.308 19.2083C487.692 19.3602 497.952 18.132 495.719 18.2876C498.658 17.7212 495.325 18.4977 497.53 18.0425ZM511.195 13.633C510.919 13.7733 510.643 13.9113 510.365 14.0475C511.494 13.5545 512.653 13.0166 513.827 12.4295C518.036 10.319 522.841 8.52349 527.776 7.25895C529.416 6.85003 527.501 7.21199 529.666 6.7276C531.403 6.34826 533.355 6.10358 532.409 6.29452C532.176 6.32533 528.626 6.99992 526.888 7.50742C521.764 9.0073 523.111 8.78701 522.807 8.85942C522.477 8.95747 519.299 10.0401 517.622 10.789C516.171 11.4155 515.011 11.9729 513.884 12.5434C511.919 13.5249 510.004 14.4479 506.447 15.6698C509.524 14.4732 507.804 15.0378 511.195 13.633ZM710.856 17.7267C711.058 17.7387 714.416 18.4622 715.658 18.6087C715.454 18.6519 712.069 18.0225 710.856 17.7267ZM192.584 5.38986C191.434 5.26628 200.038 6.51218 197.781 6.12051C197.287 5.99585 193.677 5.4673 192.584 5.38986ZM228.486 16.8882C229.505 17.1703 225.444 15.8905 225.441 15.9248C225.434 15.9629 228.349 16.8715 228.486 16.8882ZM581.979 14.8383C582.161 14.9246 584.889 15.93 584.979 15.9479C586.744 16.7408 577.814 13.279 581.979 14.8383ZM270.731 14.0843C268.385 15.1064 272.617 13.3936 274.29 12.4911C275.113 12.0756 275.423 11.9109 274.387 12.3966C274.373 12.4035 274.332 12.4232 274.271 12.4535C273.688 12.7648 270.886 14.0345 270.731 14.0843ZM286.068 7.79907C285.123 8.03722 281.02 9.42128 280.987 9.49313C280.908 9.52683 285.603 7.96238 286.068 7.79907ZM654.205 5.86013C653.72 5.79825 659.392 5.12328 661.378 5.07853C661.851 5.11267 656.156 5.47111 654.205 5.86013ZM621.506 16.9663C627.987 15.1822 631.749 13.2524 633.585 12.3778C635.65 11.3824 635.526 11.4688 633.61 12.4271C631.524 13.4789 626.998 15.7052 620.261 17.3335C620.22 17.2766 620.177 17.3196 621.506 16.9663ZM649.078 6.7963C648.239 7.04547 645.589 7.7117 643.832 8.27802C644.128 8.11469 647.776 7.08002 649.078 6.7963ZM182.22 5.03387C183.725 4.78323 190.414 5.04451 189.221 5.06657C188.947 4.96671 181.668 5.02877 182.22 5.03387ZM583.718 15.4007C583.253 15.2056 589.469 17.194 589.976 17.2505C591.899 17.8758 584.183 15.6824 583.718 15.4007ZM687.892 8.75628C689.13 9.08344 692.508 10.4212 694.614 11.4264C693.634 11.0095 689.776 9.36822 687.892 8.75628ZM671.479 5.17284C671.627 5.16499 674.859 5.55126 675 5.59366C677.636 5.97842 668.501 4.90587 671.479 5.17284ZM26.3279 16.4069C26.419 16.3586 28.5173 15.3128 28.5916 15.2787C30.4944 14.4053 24.1967 17.5435 26.3279 16.4069Z" fill="var(--stroke-0, #F5A015)"/>
</g>
<defs>
<clipPath id="clip0_0_104">
<rect width="575" height="30" fill="white"/>
</clipPath>
</defs>
</svg>
