<svg preserveAspectRatio="none" width="100%" height="100%" overflow="visible" style="display: block;" viewBox="0 0 11.1523 44.8574" fill="none" xmlns="http://www.w3.org/2000/svg">
<path id="E" fill-rule="evenodd" clip-rule="evenodd" d="M0 44.8574V35.3734H8.17957C8.9553 35.3734 9.64464 35.6083 10.2476 36.078C10.8505 36.5051 11.1523 37.4883 11.1523 39.0264C11.1523 39.8112 11.0513 40.5547 10.8493 41.258C10.6668 41.8932 10.4015 42.4943 10.0535 43.0626C9.90139 43.3108 9.74321 43.5335 9.58015 43.7307C9.4244 43.9193 9.26377 44.0835 9.09767 44.2247C8.6006 44.6469 8.05728 44.8574 7.46894 44.8574H0ZM0 26.2094H2.81637C3.93646 26.2094 4.73349 25.9746 5.20684 25.5049C5.724 25.0352 5.98257 24.0946 5.98257 22.6855C5.98257 21.2752 5.83169 20.2713 5.52991 19.6726C5.22874 19.0325 4.88377 18.648 4.49621 18.5202C4.15184 18.3913 3.63469 18.328 2.94535 18.328H0V26.2094ZM0 8.58721V0.00121684L6.17666 0C8.71802 0 9.98901 1.60257 9.98901 4.8065C9.98901 7.32657 8.86891 8.58721 6.62871 8.58721H0Z" fill="#0b4a52"/>
</svg>
