<svg preserveAspectRatio="none" width="100%" height="100%" overflow="visible" style="display: block;" viewBox="0 0 31.2131 44.8526" fill="none" xmlns="http://www.w3.org/2000/svg">
<path id="E" fill-rule="evenodd" clip-rule="evenodd" d="M1.93842 43.699C2.80055 44.4681 3.83425 44.8526 5.04074 44.8526H31.2131V35.3686H29.532C27.7658 35.3686 26.883 34.4498 26.883 32.6124V29.473C26.883 28.362 27.0764 27.5504 27.464 27.0381C27.8954 26.482 28.6492 26.2046 29.7261 26.2046H31.2131V18.3231H28.6273C27.464 18.3231 26.883 17.6818 26.883 16.4005V11.7863C26.883 10.8469 27.1409 10.0778 27.6581 9.47915C27.899 9.2224 28.1716 9.0204 28.4752 8.87438C28.8792 8.67969 29.3391 8.58234 29.8551 8.58234H31.2131V0C23.7088 0.00730102 17.7743 0.0206862 13.4089 0.0413724C9.06725 0.0620586 6.27766 0.088829 5.04074 0.1229C2.32659 0.209296 0.797028 2.0455 0.452055 5.63395C0.150888 8.41077 0 14.3489 0 23.4496C0 32.5066 0.10769 37.9531 0.32307 39.7905C0.581648 41.5842 1.1201 42.8874 1.93842 43.699Z" fill="#0b4a52"/>
</svg>
