<svg preserveAspectRatio="none" width="100%" height="100%" overflow="visible" style="display: block;" viewBox="0 0 48.9128 70.5993" fill="none" xmlns="http://www.w3.org/2000/svg">
<path id="L" fill-rule="evenodd" clip-rule="evenodd" d="M42.2192 24.1684L42.1188 44.2249C42.1188 47.1666 42.5534 49.3725 43.4225 50.8427C44.3339 52.2101 46.164 52.9115 48.9128 52.9482V70.5895C47.4481 70.5968 45.9853 70.5993 44.5255 70.5993C35.2997 70.5993 23.5331 70.532 9.22582 70.3985C6.81914 70.3985 4.84703 69.8305 3.3095 68.6933C1.83868 67.49 1.00258 65.852 0.802432 63.7795C0.267477 57.9636 0 48.8045 0 36.3022C0 23.7339 0.133433 15.2762 0.40091 10.9305C0.735103 6.51861 1.37044 3.61002 2.3063 2.20592C3.24217 0.735715 5.08084 0 7.82233 0H34.698C37.5056 0 39.3443 0.735715 40.2134 2.20592C41.1493 3.67735 41.7173 6.05098 41.918 9.32681C42.1188 12.6026 42.2192 17.5494 42.2192 24.1684Z" fill="#0b4a52"/>
</svg>
