<svg preserveAspectRatio="none" width="100%" height="100%" overflow="visible" style="display: block;" viewBox="0 0 64.1711 70.5993" fill="none" xmlns="http://www.w3.org/2000/svg">
<path id="T" fill-rule="evenodd" clip-rule="evenodd" d="M59.2119 64.1196C59.1455 65.5811 58.514 66.9439 57.3178 68.2058C56.5847 68.9395 55.7019 69.4725 54.6688 69.8071C54.0166 70.0176 53.3047 70.1491 52.5332 70.2002C48.7452 70.4654 44.1931 70.5993 38.8767 70.5993C33.5597 70.5993 28.6753 70.4654 24.2229 70.2002C22.2292 70.0675 20.6345 69.4019 19.4383 68.2058C18.2422 66.9439 17.6107 65.5811 17.5443 64.1196C17.464 60.0518 17.3995 56.226 17.3515 52.6437C17.2809 47.3297 17.245 42.5488 17.245 38.3008C17.245 31.1239 17.2785 25.8745 17.3448 22.5513C17.3448 20.0264 16.2149 18.7633 13.9559 18.7633H4.98416C4.40799 18.7633 3.87684 18.7061 3.39071 18.5929C2.70016 18.4323 2.10148 18.1561 1.59466 17.7667C0.73071 17.1023 0.232416 15.939 0.0997806 14.278C0.033463 12.6158 0 10.8879 0 9.09432C0 7.29949 0.033463 5.77114 0.0997806 4.50928C0.232416 3.17928 0.764173 2.1827 1.69444 1.5183C2.21403 1.13743 2.55961 0.805545 3.1151 0.62302C3.1151 0.62302 3.84703 0.0748745 4.88438 0.0589489C13.5239 -0.0736862 25.2201 0.0589489 39.9731 0.0589489C49.956 0.0589489 58.0218 0.0014807 64.1711 0.0623225V18.4405H62.6013C60.3417 18.4405 59.2119 19.6273 59.2119 21.9538C59.4114 30.3269 59.5106 37.9029 59.5106 44.6807C59.5106 51.4597 59.4114 57.9393 59.2119 64.1196Z" fill="#0b4a52"/>
</svg>
