<svg preserveAspectRatio="none" width="100%" height="100%" overflow="visible" style="display: block;" viewBox="0 0 29.0516 43.3705" fill="none" xmlns="http://www.w3.org/2000/svg">
<path id="U" fill-rule="evenodd" clip-rule="evenodd" d="M24.6695 6.3178L24.5492 11.7932V23.4059C24.5492 25.0907 25.0706 26.3944 26.1136 27.317C26.9709 28.0754 27.9503 28.5221 29.0516 28.657V43.3221C28.3879 43.3945 27.7151 43.3707 27.0332 43.3465C26.6889 43.3343 26.3422 43.3221 25.9932 43.3221C18.6927 43.3221 12.6557 41.6173 7.88221 38.2077C5.47543 36.4828 3.57006 34.1964 2.1661 31.3483C0.80226 28.4602 0.100282 25.1108 0.0601694 21.3C0.0200564 19.4147 0 16.6469 0 12.9966C0 9.30622 0.0401129 6.65876 0.120339 5.05424C0.240678 3.40961 0.561582 2.1661 1.08305 1.32373C1.64463 0.441243 2.74774 0 4.39238 0H20.4576C22.0622 0 23.1252 0.421187 23.6466 1.26356C24.3285 2.34661 24.6695 4.03136 24.6695 6.3178Z" fill="#0b4a52"/>
</svg>
